<?xml version="1.0" encoding="utf-8"?>
<!-- Generator: Adobe Illustrator 26.2.1, SVG Export Plug-In . SVG Version: 6.00 Build 0)  -->
<svg version="1.1" id="分離模式" xmlns="http://www.w3.org/2000/svg" xmlns:xlink="http://www.w3.org/1999/xlink" x="0px"
	 y="0px" viewBox="0 0 250 50" style="enable-background:new 0 0 250 50;" xml:space="preserve">
<style type="text/css">
	.st0{fill-rule:evenodd;clip-rule:evenodd;fill:#1A306A;}
	.st1{fill-rule:evenodd;clip-rule:evenodd;fill:#FFFFFF;}
	.st2{fill-rule:evenodd;clip-rule:evenodd;fill:#E50012;}
	.st3{fill-rule:evenodd;clip-rule:evenodd;fill:#8F954B;}
	.st4{clip-path:url(#SVGID_00000175296553762253342000000007121372739408522390_);}
	.st5{fill-rule:evenodd;clip-rule:evenodd;fill:#6D6E70;}
	.st6{fill-rule:evenodd;clip-rule:evenodd;fill:#D3965C;}
	.st7{clip-path:url(#SVGID_00000174603656045170802680000004868487214820701059_);}
	.st8{fill-rule:evenodd;clip-rule:evenodd;fill:#231815;}
	.st9{fill:#FFFFFF;}
</style>
<g>
	<g>
		<path class="st0" d="M30,0h16.5c2,0,3.5,1.5,3.5,3.4v16.7c0,1.9-1.5,3.4-3.4,3.4H30c-1.9,0-3.4-1.5-3.4-3.4V3.4
			C26.6,1.5,28.2,0,30,0z"/>
		<path class="st1" d="M32.1,9.5c1.1,0,2.1-1.3,2.1-2.9s-0.9-2.9-2.1-2.9C31,3.8,30,5,30,6.6S31,9.5,32.1,9.5z"/>
		<path class="st1" d="M38.7,2.2c1.1,0.2,1.7,1.7,1.4,3.2S38.6,8,37.5,7.8s-1.7-1.7-1.4-3.2C36.4,3,37.6,1.9,38.7,2.2z"/>
		<path class="st1" d="M46,6c0.8,0.8,0.4,2.4-0.7,3.5c-1.2,1.1-2.7,1.3-3.5,0.4c-0.8-0.8-0.4-2.4,0.7-3.5C43.6,5.3,45.2,5.1,46,6z"
			/>
		<path class="st1" d="M48,13c0.5,1-0.2,2.4-1.5,3.2c-1.4,0.8-3,0.6-3.5-0.4s0.2-2.4,1.5-3.2C45.9,11.8,47.5,12,48,13z"/>
		<path class="st1" d="M41.3,13.8c1.2,3.5,1.5,6.8-1.3,7.7s-3-3.4-7.5-3.7C22.3,17,38.2,4.8,41.3,13.8z"/>
	</g>
	<g>
		<path class="st2" d="M3.4,26.4H20c1.9,0,3.4,1.5,3.4,3.4v16.7c0,1.9-1.5,3.4-3.4,3.4H3.4c-1.9,0-3.4-1.5-3.4-3.4V29.8
			C0,27.9,1.5,26.4,3.4,26.4z"/>
		<path class="st1" d="M8.1,29.8c-0.5,2.5,5.7,8,6.6,12.5c0.1,0.7,1.1,1.3,1.9,1.3c0,0,2.9-0.3,3.9-2.1c2.8-4.9-2.9-11-8-12.1
			C11.1,29.1,9.4,28.8,8.1,29.8z"/>
		<path class="st1" d="M5.1,31.4c2.5,0.7,4.6,8.6,8.2,11.5c0.6,0.4,0.6,1.6,0.3,2.3c0,0-1.6,2.4-3.6,2.5C4.3,48,1.3,40.2,2.7,35.2
			C3.1,33.8,3.6,32.2,5.1,31.4z"/>
	</g>
	<path class="st3" d="M3.5,0H20c1.9,0,3.4,1.5,3.4,3.4v16.7c0,1.9-1.5,3.4-3.4,3.4H3.5c-1.9,0-3.4-1.5-3.4-3.4V3.4
		C0.1,1.5,1.6,0,3.5,0z"/>
	<g>
		<g>
			<g>
				<g>
					<defs>
						<path id="SVGID_1_" d="M3.5,0H20c1.9,0,3.4,1.5,3.4,3.4v16.7c0,1.9-1.5,3.4-3.4,3.4H3.5c-1.9,0-3.4-1.5-3.4-3.4V3.4
							C0.1,1.5,1.6,0,3.5,0z"/>
					</defs>
					<clipPath id="SVGID_00000089543086367441565730000014274216744026515860_">
						<use xlink:href="#SVGID_1_"  style="overflow:visible;"/>
					</clipPath>
					<g style="clip-path:url(#SVGID_00000089543086367441565730000014274216744026515860_);">
						<g>
							<path class="st1" d="M9.1,18.4c-0.2-0.1-0.4-0.1-0.6-0.1c-0.7-0.1-1.4-0.2-2.1-0.5C5.6,17.5,5,17,4.5,16.3
								c-0.4-0.4-0.7-0.8-1-1.3c0,0,0,0,0-0.1c0,0-0.1-0.1,0-0.1h0.1c0.2,0.3,0.4,0.5,0.6,0.7c0.2,0.3,0.2,0.3,0.6,0.1
								c0.7-0.3,1.4-0.7,2.2-0.9c0.4-0.1,0.7-0.1,1,0c0.2,0.1,0.4,0.1,0.6,0.2c0.2,0,0.3,0,0.5-0.1c0.1-0.1,0.3-0.2,0.4-0.3v-0.1
								c-0.4-0.5-0.7-1-1.1-1.5l-0.1-0.1c-0.2-0.1-0.4-0.1-0.6-0.2c-0.1,0-0.2-0.1-0.2-0.2c-0.1-0.1-0.1-0.3,0-0.4
								c0.1,0,0.1-0.1,0.2-0.1s0.1-0.1,0.2-0.1c-0.2-0.2-0.4-0.4-0.6-0.5s-0.4-0.1-0.6,0c-0.3,0-0.7,0.1-1,0.2c-0.1,0-0.1,0-0.1,0.1
								c-0.1,0.2-0.1,0.4,0,0.6c0.1,0.1,0.2,0.2,0.3,0.1c-0.1-0.2,0-0.3,0.1-0.4c0,0,0-0.1,0.1,0c0,0,0,0,0,0.1
								c0.1,0.3-0.3,0.8-0.5,0.9C5.3,13,5,12.8,4.9,12.5c0-0.2,0-0.5,0.1-0.7c0-0.1,0-0.1,0-0.2c-1.2,0.2-2.4,0.4-3.6,0.6
								c0-0.1,0-0.1,0-0.2c0,0,0-0.1,0.1-0.1C1.6,11.4,1.8,11,2,10.5c0.5-1,1.3-1.8,2.2-2.5c1.2-1,2.5-1.6,4-1.9
								c0.2,0,0.4,0,0.6-0.1c0.3,0,0.6,0,0.8,0c0.1-0.1,0.1,0,0,0.2C9.4,6.4,9.3,6.5,9.1,6.7C8.9,6.9,8.8,7.2,9,7.5
								C9.2,8,9.4,8.5,9.6,9c0.1,0.2,0.1,0.4,0.2,0.6c0,0.3-0.1,0.6-0.4,0.7c-0.3,0.1-0.7,0.1-1,0.1c-0.1,0-0.2,0-0.3,0
								c0,0-0.1,0-0.1-0.1c0,0,0,0,0.1,0s0.2,0,0.2,0C8.8,10.1,9,9.8,9,9.4C8.9,9,8.7,8.6,8.6,8.3c0-0.1-0.1-0.2-0.1-0.3
								C8.4,7.8,8.2,7.7,8,7.6c-0.1,0-0.1,0-0.2-0.1c0-0.1,0-0.1,0.1-0.2c0.3-0.3,0.7-0.5,1-0.8C9,6.4,9,6.4,9.1,6.3
								c-0.3,0-0.6,0-0.9,0.1c-1.5,0.3-2.7,1-3.7,2.1c-0.8,0.8-1.4,1.7-1.8,2.8v0.1c0.2,0,0.5-0.1,0.7-0.1C3.9,11.2,4.5,11.1,5,11
								c0.2,0,0.3-0.1,0.3-0.3c0.4-0.5,0.7-1,1.2-1.5C6.6,9.1,6.8,9,7,8.9s0.4,0,0.5,0.1C7.8,9.3,7.9,9.6,8,10v0.1
								c0,0-0.1,0-0.1-0.1S7.7,9.7,7.5,9.6c-0.3-0.3-0.6-0.2-0.9,0s-0.5,0.5-0.7,0.9c-0.1,0.1-0.2,0.3-0.3,0.5
								c0.2,0,0.4-0.1,0.6-0.1c0.1,0,0.1-0.1,0.2-0.2c0.1-0.2,0.2-0.3,0.4-0.4c0.1-0.1,0.2-0.1,0.3-0.1c0.1,0,0.1,0.1,0.1,0.1
								c-0.1,0.2,0,0.4,0.2,0.5c0.2,0.2,0.5,0.4,0.7,0.6l0.1,0.1c0.2,0.1,0.3,0.3,0.2,0.5c0,0.2,0.1,0.3,0.2,0.4
								C9,13,9.5,13.6,9.9,14.3c0.1,0.1,0.1,0.2,0,0.3c-0.2,0.2-0.3,0.4-0.5,0.6c-0.4,0.3-0.8,0.4-1.3,0.3c-0.2,0-0.5-0.1-0.7-0.1
								c-0.4-0.1-0.8,0-1.2,0.2c-0.5,0.2-1,0.4-1.5,0.5c-0.1,0-0.1,0.1,0,0.2c0.6,0.6,1.4,0.9,2.2,1.2c1.8,0.5,3.6,0.4,5.3-0.5
								c1-0.5,1.8-1.3,2.3-2.3c0.1-0.3,0.4-0.4,0.7-0.3c0.3,0.1,0.6,0.4,0.4,0.8c-0.3,0.6-0.7,1.1-1.2,1.5c-0.9,0.9-2,1.4-3.3,1.7
								c-0.3,0-0.5,0.1-0.8,0.1h-0.1C9.9,18.4,9.5,18.4,9.1,18.4z"/>
							<path class="st5" d="M12.5,12.1c-0.1,0.1-0.1,0.1-0.1,0.2c-0.3,0.7-0.5,1.4-0.8,2c-0.1,0.2-0.6,0.2-0.7,0
								c-0.4-1.1-0.8-2.2-1.2-3.2V11c0-0.1,0-0.1,0.1-0.1c0.2,0,0.5,0,0.7,0c0.1,0,0.1,0.1,0.1,0.1c0.2,0.7,0.5,1.4,0.7,2.1
								c0,0,0,0.1,0.1,0.1c0.1-0.3,0.2-0.7,0.4-1c0.1-0.4,0.3-0.8,0.4-1.2c0-0.1,0.1-0.1,0.2-0.1c0.1,0,0.1,0,0.2,0
								c0.3,0,0.3,0,0.4,0.2c0.3,0.7,0.5,1.4,0.8,2.1c0.2-0.6,0.4-1.2,0.6-1.8c0.1,0.1,0.2,0.3,0.2,0.4c0.2,0.3,0.2,0.6,0.1,0.9
								c-0.2,0.5-0.4,1.1-0.6,1.6c-0.1,0.2-0.6,0.2-0.7,0c-0.3-0.7-0.5-1.4-0.8-2.1C12.5,12.2,12.5,12.1,12.5,12.1z"/>
							<path class="st5" d="M22.6,14.5c-0.3,0-0.6,0-0.8,0c-0.1,0-0.1,0-0.1-0.1c-0.1-0.2-0.2-0.4-0.3-0.6c0-0.1-0.1-0.1-0.2-0.1
								c-0.6,0-1.2,0-1.8,0c-0.1,0-0.1,0-0.2,0.1c-0.1,0.2-0.2,0.4-0.3,0.6c0,0.1-0.1,0.1-0.2,0.1c-0.2,0-0.4,0-0.7,0
								c0.1-0.3,0.3-0.5,0.4-0.7c0.5-0.9,0.9-1.8,1.4-2.7c0.1-0.1,0.2-0.2,0.3-0.2c0.1,0,0.3,0,0.4,0s0.1,0,0.2,0.1
								C21.3,12.1,21.9,13.2,22.6,14.5C22.5,14.4,22.5,14.4,22.6,14.5L22.6,14.5z M20.2,11.6L20.2,11.6c-0.2,0.4-0.4,0.9-0.6,1.3
								c0,0.1,0,0.1,0.1,0.1c0.4,0,0.8,0,1.1,0c0.1,0,0.1,0,0.1-0.1C20.7,12.5,20.5,12.1,20.2,11.6z"/>
							<path class="st5" d="M16.7,7.7c-0.5,0.2-0.9,0.4-1.3,0.7c-0.1,0.1-0.2,0.1-0.2-0.1c0-0.5,0.2-0.7,0.6-0.8
								c0.2,0,0.5-0.1,0.7-0.2c0.1,0,0.2-0.1,0.2-0.2c0-0.2,0-0.4,0-0.7c0-0.2,0.1-0.2,0.2-0.3c0.1,0,0.2,0.1,0.2,0.2
								c0,0.2,0,0.4,0,0.6c0,0.1,0,0.1,0.1,0.1c0.4-0.1,0.7,0,1.1,0.2c0.4,0.3,0.3,0.8-0.1,1c-0.3,0.2-0.6,0.3-0.9,0.4
								c-0.1,0.1-0.2,0.1-0.2,0.3s0,0.4,0,0.6c0,0.1,0,0.2,0.1,0.2c0.2,0,0.4,0,0.5,0.1c0.2,0,0.3,0.2,0.3,0.4s0,0.4-0.2,0.5
								c-0.1,0.1-0.3,0.1-0.4,0.2c-0.1,0-0.2,0-0.2,0.1c-0.1,0.1-0.1,0.1-0.1,0.2c0,0.2,0,0.4,0,0.5c0,0.2-0.1,0.2-0.2,0.2
								s-0.2-0.1-0.2-0.2c0-0.5,0-0.9,0-1.4c0-0.1,0-0.2-0.2-0.2c-0.1,0-0.3-0.1-0.4-0.1c-0.2-0.1-0.3-0.3-0.2-0.6
								c0.1-0.3,0.3-0.5,0.6-0.7c0.2-0.1,0.2-0.2,0.2-0.4C16.6,8.2,16.7,8,16.7,7.7L16.7,7.7z M17.1,8.4L17.1,8.4
								c0.3-0.1,0.6-0.3,0.8-0.4C18,7.9,18.1,7.9,18,7.8c0-0.1-0.1-0.2-0.2-0.2c-0.2-0.1-0.4,0-0.7,0c0,0-0.1,0-0.1,0.1
								C17.1,7.9,17.1,8.1,17.1,8.4L17.1,8.4z M16.7,9.4L16.7,9.4c0-0.1,0-0.1,0-0.2c0,0,0-0.1-0.1,0s-0.2,0.2-0.2,0.3
								s0,0.1,0.1,0.2c0.1,0,0.1,0.1,0.2,0.1s0-0.1,0-0.2C16.7,9.5,16.7,9.5,16.7,9.4L16.7,9.4z M17.3,10.2L17.3,10.2
								c-0.2,0-0.2,0.1-0.2,0.2c0,0,0,0.1,0.1,0c0.1,0,0.2-0.1,0.3-0.1c0,0,0.1,0,0-0.1c0,0,0,0-0.1-0.1
								C17.4,10.3,17.4,10.2,17.3,10.2z"/>
							<path class="st5" d="M19,10.9c-0.1,0.3-0.3,0.5-0.4,0.8c-0.5,0.9-0.9,1.8-1.4,2.7c-0.1,0.2-0.6,0.2-0.7-0.1
								c-0.6-1.1-1.1-2.2-1.7-3.2c0,0,0-0.1-0.1-0.2c0.2,0,0.4,0,0.6,0h0.1c0.2-0.1,0.3,0.1,0.4,0.2c0.3,0.7,0.7,1.4,1.1,2.1
								c0,0,0.1,0.1,0.1,0.2c0.1-0.3,0.3-0.5,0.4-0.8c0.3-0.5,0.5-1.1,0.8-1.6c0-0.1,0.1-0.1,0.2-0.1C18.5,10.9,18.7,10.9,19,10.9z"
								/>
							<path class="st1" d="M10,6.8c1.3,0.1,2.5,0.5,3.6,1.4c0.7,0.6,1.2,1.2,1.6,2c0,0,0.1,0.1,0,0.1s-0.1,0-0.1-0.1
								c-0.6-0.8-1.3-1.5-2.2-2c-0.8-0.4-1.6-0.6-2.5-0.7c-0.1,0-0.1,0-0.1-0.1C10.2,7.2,10.1,7,10,6.8z"/>
						</g>
					</g>
				</g>
			</g>
		</g>
	</g>
	<path class="st6" d="M29.7,26.4h17c1.8,0,3.2,1.5,3.2,3.2v17c0,1.8-1.5,3.2-3.2,3.2h-17c-1.8,0-3.2-1.5-3.2-3.2v-17
		C26.5,27.9,27.9,26.4,29.7,26.4z"/>
	<g>
		<g>
			<g>
				<g>
					<defs>
						<path id="SVGID_00000134236886463277535410000011795043091060885665_" d="M29.7,26.4h17c1.8,0,3.2,1.5,3.2,3.2v17
							c0,1.8-1.5,3.2-3.2,3.2h-17c-1.8,0-3.2-1.5-3.2-3.2v-17C26.5,27.9,27.9,26.4,29.7,26.4z"/>
					</defs>
					<clipPath id="SVGID_00000075135882910029628170000016114031585986886055_">
						<use xlink:href="#SVGID_00000134236886463277535410000011795043091060885665_"  style="overflow:visible;"/>
					</clipPath>
					<g style="clip-path:url(#SVGID_00000075135882910029628170000016114031585986886055_);">
						<path class="st8" d="M32.5,49.9c0.6-2.7-2.3-5.5-3.8-8.6c-1.9-4-1.9-6.3,0.5-6.4c1.2,0,1.7,1.3,2.3,2.6s1.2,2.6,2.5,2.6l0,0
							l0,0c0.3-0.7,0.3-5.7,0.6-6.7c-1.7-4.2,3.4-5,3.6-1.4c2.9,0.5,4.4,0.5,5-0.1c0.1-0.6,0.2-1.3,0.5-1.8s0.7-0.7,1.9-0.7
							c0.7,0,2,1.1,1.7,2.9c1.4,4.7,1.3,9.1,1.5,9.6c1.3,0.3,3.6,5.7,3.6,7.9L32.5,49.9L32.5,49.9z"/>
						<path class="st1" d="M30.3,35.9c0.1,0.1,0.1,0.2,0,0.3s-0.2,0.1-0.3,0.1c-0.1-0.1-0.1-0.2,0-0.3S30.2,35.8,30.3,35.9z"/>
						<path class="st1" d="M28.7,35.6c0.1,0,0.2,0,0.3,0.2c0,0.1,0,0.3-0.1,0.3s-0.2,0-0.3-0.2C28.6,35.7,28.6,35.6,28.7,35.6z"/>
						<path class="st1" d="M28.1,36.1c0.1-0.1,0.2-0.1,0.3-0.1c0.1,0.1,0.2,0.2,0.1,0.3s-0.2,0.1-0.3,0.1
							C28.1,36.3,28,36.2,28.1,36.1z"/>
						<path class="st1" d="M27.9,36.7c0.1-0.1,0.2-0.1,0.3,0c0.1,0.1,0.1,0.2,0.1,0.3c-0.1,0.1-0.2,0.1-0.3,0
							C27.8,36.9,27.8,36.8,27.9,36.7z"/>
						<path class="st1" d="M29.6,35.5c0.1,0,0.2,0.2,0.2,0.3S29.7,36,29.5,36c-0.1,0-0.2-0.2-0.2-0.3C29.4,35.5,29.5,35.5,29.6,35.5
							z"/>
						<path class="st1" d="M38.8,37.6c2-2.9,6.2,1.5,2.7,2.3C39.8,40.2,37.4,39.6,38.8,37.6z"/>
						<path class="st1" d="M41,44.9c1.6-0.2,4.3-2.5,4.5-2.7c0.4-0.4-1.2,3.6-3.6,4.3c-2.9,0.8-5.4-2.2-5.9-5
							C35.8,40.5,38.8,45.1,41,44.9z"/>
						<path class="st1" d="M38.3,35.5c0.3,0,0.6,0.2,0.7,0.6c0.1,0.4-0.2,0.7-0.5,0.8c-0.3,0-0.6-0.2-0.7-0.6
							C37.8,35.9,38,35.5,38.3,35.5z"/>
						<path class="st1" d="M42.9,35.5c0.3,0.1,0.4,0.5,0.3,0.9c-0.2,0.3-0.5,0.5-0.8,0.3c-0.3-0.1-0.4-0.5-0.3-0.9
							C42.2,35.5,42.6,35.3,42.9,35.5z"/>
						<path class="st8" d="M38.4,35.7c0.2,0,0.4,0.1,0.5,0.4c0,0.2-0.1,0.5-0.3,0.5s-0.4-0.1-0.5-0.4C38,36,38.1,35.7,38.4,35.7z"/>
						<path class="st8" d="M42.6,35.6c-0.2,0-0.4,0.1-0.5,0.4c0,0.2,0.1,0.5,0.3,0.5s0.4-0.1,0.5-0.4C43,35.9,42.9,35.7,42.6,35.6z"
							/>
						<path class="st8" d="M40.1,37.5c0.2-0.1,1.2-0.2,1,0.4c0,0.1-0.4,0.6-0.6,0.5c-0.2-0.1-0.2-0.1-0.5-0.3
							C40,38,39.9,37.6,40.1,37.5z"/>
						<path class="st8" d="M40.5,38v1c0.4,0.1,0.3-0.1,0.3-0.4c0-0.1,0-0.6-0.1-0.6C40.6,38.1,40.5,38,40.5,38z"/>
						<path class="st8" d="M40.6,38.8c0.1,0,0.6,0.3,0.6,0.3c-0.1,0.3-0.4,0.1-0.6,0S40.6,38.8,40.6,38.8z"/>
						<path class="st8" d="M40.6,38.8c-0.1,0-0.6,0.3-0.6,0.3c0.1,0.3,0.4,0.1,0.6,0C40.8,39,40.6,38.8,40.6,38.8z"/>
						<path class="st1" d="M28.5,37.3c-0.1-0.3,0.2-0.9,0.6-1c0.8-0.2,1.2,0.4,1,0.6c-0.4,0.3-0.6-0.1-0.8,0.3
							C29,37.6,28.6,37.5,28.5,37.3z"/>
					</g>
				</g>
			</g>
		</g>
	</g>
</g>
<g>
	<path d="M86.7-74.9l-5.2,16.4h-4.1L75.2-69c-0.1-0.6-0.2-1.2-0.2-1.8l0,0c-0.1,0.7-0.2,1.4-0.4,1.8l-3.3,10.5H67l-3.5-16.4h4
		L69.3-64c0.1,0.5,0.1,1.1,0.1,1.9h0.1c0.1-0.6,0.2-1.2,0.4-1.9l3.5-10.9h4l2.1,11c0.1,0.4,0.1,1,0.2,1.8l0,0
		c0.1-0.6,0.2-1.2,0.3-1.8l2.8-11H86.7z"/>
	<path d="M103.4-74.9l-6.5,16.4h-4.2l-4.8-16.4h4l2.8,11.4c0.2,0.6,0.2,1.2,0.2,1.6H95c0.1-0.5,0.2-1.1,0.4-1.7l4-11.4L103.4-74.9
		L103.4-74.9z"/>
	<path d="M119.9-58.5h-4l-1-3.7h-5.8l-1.3,3.7h-4l6.8-16.4h4.4L119.9-58.5L119.9-58.5z M114.2-65l-1.5-5.5c-0.1-0.4-0.2-0.9-0.2-1.5
		h-0.1c-0.1,0.5-0.2,1-0.4,1.4l-2.1,5.6H114.2z"/>
	<path d="M134.7-59.1c-1.2,0.6-2.8,0.9-4.7,0.9c-2.5,0-4.5-0.7-5.8-2.2c-1.4-1.5-2-3.5-1.9-5.9c0.1-2.6,1.1-4.8,2.8-6.4
		c1.7-1.6,3.9-2.5,6.4-2.5c1.6,0,2.9,0.2,4,0.6l-0.2,3.6c-1.1-0.7-2.3-1-3.7-1c-1.5,0-2.8,0.5-3.8,1.5s-1.5,2.3-1.6,3.9
		s0.3,2.9,1.1,3.8c0.8,0.9,2,1.4,3.5,1.4c1.4,0,2.8-0.4,4-1.1L134.7-59.1z"/>
	<path d="M143.2-61.6L143.2-61.6l6.7,0.1v3h-10.8v-2.8l4.7-4.5c1-0.9,1.6-1.7,2-2.3c0.4-0.6,0.6-1.3,0.6-1.9c0-1.5-0.8-2.3-2.4-2.3
		c-1.4,0-2.8,0.6-4.1,1.7v-3.2c1.4-0.9,3-1.4,4.8-1.4c1.7,0,3,0.4,3.9,1.3c0.9,0.8,1.4,2,1.4,3.4c0,1.9-1.2,3.9-3.5,5.9L143.2-61.6z
		"/>
	<path d="M158.9-58.2c-3.9,0-5.9-2.7-5.9-8.2c0-2.9,0.5-5,1.6-6.5s2.6-2.2,4.6-2.2c3.8,0,5.7,2.8,5.7,8.4c0,2.8-0.5,4.9-1.6,6.4
		C162.4-58.9,160.9-58.2,158.9-58.2L158.9-58.2z M159.1-72.4c-1.6,0-2.3,2-2.3,5.9c0,3.7,0.8,5.6,2.3,5.6s2.3-1.9,2.3-5.7
		C161.3-70.5,160.5-72.4,159.1-72.4z"/>
	<path d="M172.1-61.6L172.1-61.6l6.7,0.1v3H168v-2.8l4.7-4.5c1-0.9,1.6-1.7,2-2.3c0.4-0.6,0.6-1.3,0.6-1.9c0-1.5-0.8-2.3-2.4-2.3
		c-1.4,0-2.8,0.6-4.1,1.7v-3.2c1.4-0.9,3-1.4,4.8-1.4c1.7,0,3,0.4,3.9,1.3c0.9,0.8,1.4,2,1.4,3.4c0,1.9-1.2,3.9-3.5,5.9L172.1-61.6z
		"/>
	<polygon points="193.5,-58.5 183.1,-58.5 183.1,-61.3 186.5,-61.3 186.5,-71.6 183,-70.8 183,-73.8 190.2,-75.2 190.2,-61.3 
		193.5,-61.3 	"/>
	<path d="M64.5-34.8v-3.3c0.9,0.9,1.9,1.3,3.1,1.3c0.7,0,1.3-0.2,1.7-0.6c0.4-0.4,0.6-1,0.6-1.8s-0.3-1.4-0.8-1.8
		c-0.5-0.4-1.2-0.6-2.1-0.6h-1.2v-2.9h1.1c1.7,0,2.6-0.8,2.6-2.3c0-1.4-0.7-2.1-2-2.1c-0.9,0-1.7,0.4-2.6,1.1v-3.1
		c0.9-0.6,2-0.9,3.2-0.9c1.4,0,2.4,0.4,3.2,1.2c0.8,0.8,1.1,1.8,1.1,3.1c0,2.3-0.9,3.7-2.6,4.3v0.1c0.9,0.2,1.7,0.6,2.2,1.3
		s0.8,1.7,0.8,2.7c0,1.6-0.5,2.9-1.4,3.9s-2.2,1.4-3.7,1.4C66.4-33.9,65.3-34.2,64.5-34.8z"/>
	<polygon points="84.9,-49.9 80.2,-34.2 77.1,-34.2 81.8,-48.6 75.7,-48.6 75.7,-51.7 84.9,-51.7 	"/>
	<path d="M88.4-44.9c-0.1,0.1-0.3,0.1-0.5,0.1c-0.6,0-0.9-0.4-0.9-1.3v-2.7h-0.6v-0.6H87v-1.1l0.5-0.2v1.4h0.8v0.6h-0.7v2.5
		c0,0.3,0,0.5,0.1,0.7c0.1,0.1,0.2,0.2,0.4,0.2c0.1,0,0.2-0.1,0.3-0.2C88.4-45.5,88.4-44.9,88.4-44.9z"/>
	<path d="M92.2-44.9h-0.5v-2.6c0-1-0.3-1.4-0.8-1.4c-0.3,0-0.5,0.1-0.6,0.4c-0.2,0.3-0.3,0.6-0.3,1.1v2.6h-0.5v-6.8H90v3l0,0
		c0.3-0.6,0.6-0.9,1.1-0.9c0.7,0,1.1,0.6,1.1,1.9C92.2-47.6,92.2-44.9,92.2-44.9z"/>
	<polygon points="97,-45 95.5,-51.8 96.6,-51.8 97.5,-47 98.3,-51.8 99.5,-51.8 100.2,-47 101.1,-51.8 102.2,-51.8 100.7,-45 
		99.7,-45 98.9,-50.2 98,-45 	"/>
	<path d="M104.4-48.4c0,0.8,0.1,1.3,0.4,1.7s0.6,0.6,1.1,0.6s0.8-0.2,1.1-0.6c0.3-0.4,0.4-1,0.4-1.7c0-0.8-0.1-1.3-0.4-1.7
		s-0.6-0.6-1.1-0.6s-0.8,0.2-1.1,0.6C104.5-49.7,104.4-49.1,104.4-48.4L104.4-48.4z M103.3-48.4c0-1.1,0.2-2,0.7-2.6s1.1-1,1.9-1
		s1.4,0.3,1.9,1c0.5,0.6,0.7,1.5,0.7,2.6s-0.2,2-0.7,2.6s-1.1,1-1.9,1s-1.4-0.3-1.9-1C103.5-46.4,103.3-47.3,103.3-48.4z"/>
	<path d="M111-48.8h1.3c0.3,0,0.5-0.1,0.6-0.2c0.1-0.1,0.2-0.4,0.2-0.7s-0.1-0.5-0.2-0.7s-0.3-0.2-0.6-0.2H111V-48.8L111-48.8z
		 M109.9-45v-6.8h2.6c0.6,0,1,0.2,1.3,0.5s0.4,0.8,0.4,1.5c0,0.4-0.1,0.8-0.2,1c-0.1,0.3-0.3,0.5-0.6,0.6c0.2,0.1,0.4,0.3,0.5,0.5
		s0.2,0.6,0.2,1v0.8l0,0c0,0.4,0.1,0.7,0.2,0.7v0.2h-1.2c0-0.1-0.1-0.2-0.1-0.4c0-0.1,0-0.3,0-0.5v-0.7c0-0.4-0.1-0.7-0.2-0.9
		c-0.1-0.1-0.3-0.2-0.6-0.2H111v2.7C111-45,109.9-45,109.9-45z"/>
	<polygon points="115.8,-45 115.8,-51.8 116.9,-51.8 116.9,-46.2 119.5,-46.2 119.5,-45 	"/>
	<path d="M121.7-46.2h0.9c0.5,0,0.9-0.2,1.1-0.5s0.3-0.9,0.3-1.7s-0.1-1.3-0.3-1.7c-0.2-0.4-0.5-0.5-1-0.5h-1V-46.2L121.7-46.2z
		 M120.7-45v-6.8h2.1c0.8,0,1.4,0.3,1.8,0.8c0.4,0.6,0.6,1.4,0.6,2.6c0,0.6-0.1,1.2-0.2,1.6c-0.1,0.5-0.4,0.9-0.6,1.1
		s-0.5,0.4-0.7,0.5c-0.3,0.1-0.6,0.1-1.1,0.1L120.7-45L120.7-45z"/>
	<polygon points="129.4,-45 127.5,-51.8 128.7,-51.8 129.9,-46.7 131,-51.8 132.2,-51.8 130.4,-45 	"/>
	<polygon points="133.3,-45 133.3,-51.8 137.2,-51.8 137.2,-50.6 134.4,-50.6 134.4,-49.1 136.9,-49.1 136.9,-48 134.4,-48 
		134.4,-46.2 137.3,-46.2 137.3,-45 	"/>
	<polygon points="139.9,-45 139.9,-50.6 138.3,-50.6 138.3,-51.8 142.5,-51.8 142.5,-50.6 141,-50.6 141,-45 	"/>
	<polygon points="143.8,-45 143.8,-51.8 147.6,-51.8 147.6,-50.6 144.8,-50.6 144.8,-49.1 147.4,-49.1 147.4,-48 144.8,-48 
		144.8,-46.2 147.7,-46.2 147.7,-45 	"/>
	<path d="M150.3-48.8h1.3c0.3,0,0.5-0.1,0.6-0.2c0.1-0.1,0.2-0.4,0.2-0.7s-0.1-0.5-0.2-0.7c-0.1-0.2-0.3-0.2-0.6-0.2h-1.3V-48.8
		L150.3-48.8z M149.2-45v-6.8h2.6c0.6,0,1,0.2,1.3,0.5s0.4,0.8,0.4,1.5c0,0.4-0.1,0.8-0.2,1c-0.1,0.3-0.3,0.5-0.6,0.6
		c0.2,0.1,0.4,0.3,0.5,0.5s0.2,0.6,0.2,1v0.8l0,0c0,0.4,0.1,0.7,0.2,0.7v0.2h-1.2c0-0.1-0.1-0.2-0.1-0.4c0-0.1,0-0.3,0-0.5v-0.7
		c0-0.4-0.1-0.7-0.2-0.9c-0.1-0.1-0.3-0.2-0.6-0.2h-1.2v2.7C150.3-45,149.2-45,149.2-45z"/>
	<rect x="155.1" y="-51.8" width="1.1" height="6.8"/>
	<polygon points="158,-45 158,-51.8 159.1,-51.8 161.2,-47.1 161.2,-51.8 162.3,-51.8 162.3,-45 161.2,-45 159,-49.6 159,-45 	"/>
	<path d="M166-50.4l-0.7,2.9h1.5L166-50.4L166-50.4z M165.4-51.8h1.3l1.9,6.8h-1.1l-0.4-1.4h-2l-0.3,1.4h-1.1L165.4-51.8z"/>
	<path d="M170.8-48.8h1.3c0.3,0,0.5-0.1,0.6-0.2c0.1-0.1,0.2-0.4,0.2-0.7s-0.1-0.5-0.2-0.7c-0.1-0.2-0.3-0.2-0.6-0.2h-1.3V-48.8
		L170.8-48.8z M169.7-45v-6.8h2.6c0.6,0,1,0.2,1.3,0.5s0.4,0.8,0.4,1.5c0,0.4-0.1,0.8-0.2,1c-0.1,0.3-0.3,0.5-0.6,0.6
		c0.2,0.1,0.4,0.3,0.5,0.5s0.2,0.6,0.2,1v0.8l0,0c0,0.4,0.1,0.7,0.2,0.7v0.2h-1.2c0-0.1-0.1-0.2-0.1-0.4c0-0.1,0-0.3,0-0.5v-0.7
		c0-0.4-0.1-0.7-0.2-0.9c-0.1-0.1-0.3-0.2-0.6-0.2h-1.2v2.7C170.8-45,169.7-45,169.7-45z"/>
	<polygon points="178,-45 176.9,-45 176.9,-47.5 174.9,-51.8 176.3,-51.8 177.4,-48.8 178.5,-51.8 179.7,-51.8 178,-47.5 	"/>
	<path d="M99-39.7l-1.2,2.8h1.4L99-39.7L99-39.7z M98.7-41.1h1.2l0.6,6.7h-1.1l-0.1-1.4h-1.9l-0.6,1.4h-1.1L98.7-41.1z"/>
	<path d="M101.7-36.4h1c0,0.4,0,0.6,0.2,0.8c0.1,0.2,0.4,0.3,0.7,0.3s0.5-0.1,0.7-0.2c0.2-0.1,0.3-0.3,0.3-0.6
		c0.1-0.4-0.3-0.7-1.1-1l0,0h-0.1c-0.4-0.1-0.7-0.3-0.9-0.4c-0.1-0.1-0.2-0.3-0.3-0.6c0-0.2,0-0.5,0-0.9c0.1-0.6,0.4-1.1,0.7-1.5
		c0.4-0.3,0.9-0.5,1.5-0.5s1,0.2,1.2,0.5c0.3,0.4,0.3,0.9,0.2,1.5h-1c0-0.3,0-0.6-0.1-0.7c-0.1-0.2-0.4-0.2-0.7-0.2
		c-0.3,0-0.5,0.1-0.6,0.2c-0.2,0.1-0.3,0.3-0.3,0.6c-0.1,0.3,0.2,0.6,0.7,0.8c0.1,0,0.3,0.1,0.3,0.1c0.3,0.1,0.6,0.2,0.7,0.3
		s0.3,0.1,0.3,0.2c0.2,0.1,0.3,0.3,0.3,0.6c0.1,0.2,0.1,0.5,0,0.9c-0.1,0.7-0.4,1.2-0.8,1.6c-0.4,0.4-0.9,0.6-1.5,0.6
		s-1.1-0.2-1.3-0.6C101.7-35.1,101.6-35.7,101.7-36.4z"/>
	<path d="M106.9-36.4h1c0,0.4,0,0.6,0.2,0.8c0.1,0.2,0.4,0.3,0.7,0.3c0.3,0,0.5-0.1,0.7-0.2c0.2-0.1,0.3-0.3,0.3-0.6
		c0.1-0.4-0.3-0.7-1.1-1l0,0h-0.1c-0.4-0.1-0.7-0.3-0.9-0.4c-0.1-0.1-0.2-0.3-0.3-0.6c0-0.2,0-0.5,0-0.9c0.1-0.6,0.4-1.1,0.7-1.5
		c0.4-0.3,0.9-0.5,1.5-0.5s1,0.2,1.2,0.5c0.3,0.4,0.3,0.9,0.2,1.5h-1c0-0.3,0-0.6-0.1-0.7c-0.1-0.2-0.4-0.2-0.7-0.2
		s-0.5,0.1-0.6,0.2c-0.2,0.1-0.3,0.3-0.3,0.6c-0.1,0.3,0.2,0.6,0.7,0.8c0.1,0,0.3,0.1,0.3,0.1c0.3,0.1,0.6,0.2,0.7,0.3
		s0.3,0.1,0.3,0.2c0.2,0.1,0.3,0.3,0.3,0.6c0.1,0.2,0.1,0.5,0,0.9c-0.1,0.7-0.4,1.2-0.8,1.6c-0.4,0.4-0.9,0.6-1.5,0.6
		s-1.1-0.2-1.3-0.6C106.9-35.1,106.8-35.7,106.9-36.4z"/>
	<path d="M113.3-37.6c-0.1,0.7-0.1,1.3,0.1,1.7s0.5,0.6,0.9,0.6s0.8-0.2,1.1-0.6c0.3-0.4,0.5-1,0.7-1.7c0.1-0.7,0.1-1.3-0.1-1.7
		s-0.5-0.6-0.9-0.6s-0.8,0.2-1.1,0.6C113.6-38.9,113.4-38.3,113.3-37.6L113.3-37.6z M112.2-37.6c0.2-1,0.6-1.9,1.1-2.5
		s1.2-0.9,1.9-0.9c0.7,0,1.3,0.3,1.6,0.9c0.3,0.6,0.4,1.5,0.2,2.5c-0.2,1-0.6,1.9-1.1,2.5s-1.2,0.9-1.9,0.9c-0.7,0-1.2-0.3-1.6-0.9
		C112.1-35.7,112-36.6,112.2-37.6z"/>
	<path d="M122.4-36.6c-0.2,0.7-0.5,1.3-1,1.8c-0.5,0.4-1,0.7-1.6,0.7c-0.7,0-1.2-0.3-1.5-0.9c-0.3-0.6-0.3-1.4-0.1-2.5
		s0.6-2,1.1-2.5c0.5-0.6,1.2-0.9,1.9-0.9c0.6,0,1.1,0.2,1.4,0.6c0.3,0.4,0.4,1,0.3,1.7h-1c0-0.4,0-0.6-0.2-0.8
		c-0.1-0.2-0.4-0.3-0.7-0.3c-0.4,0-0.8,0.2-1.1,0.6c-0.3,0.4-0.5,0.9-0.6,1.7c-0.1,0.7-0.1,1.3,0,1.6c0.2,0.4,0.4,0.6,0.9,0.6
		c0.3,0,0.6-0.1,0.8-0.3s0.4-0.5,0.5-0.9h0.9L122.4-36.6L122.4-36.6z"/>
	<polygon points="123.4,-34.4 124.6,-40.9 125.6,-40.9 124.4,-34.4 	"/>
	<path d="M128.8-39.6l-1.2,2.8h1.4L128.8-39.6L128.8-39.6z M128.4-40.9h1.2l0.6,6.5h-1.1l-0.1-1.3h-1.9l-0.6,1.3h-1.1L128.4-40.9z"
		/>
	<polygon points="132,-34.4 133,-39.7 131.6,-39.7 131.8,-40.9 135.6,-40.9 135.4,-39.7 134,-39.7 133,-34.4 	"/>
	<polygon points="135.7,-34.4 136.8,-40.9 137.8,-40.9 136.7,-34.4 	"/>
	<path d="M139.7-37.6c-0.1,0.7-0.1,1.3,0.1,1.7c0.2,0.4,0.5,0.6,0.9,0.6s0.8-0.2,1.1-0.6c0.3-0.4,0.5-1,0.7-1.7
		c0.1-0.7,0.1-1.3-0.1-1.7c-0.2-0.4-0.5-0.6-0.9-0.6s-0.8,0.2-1.1,0.6C140-38.9,139.8-38.3,139.7-37.6L139.7-37.6z M138.7-37.6
		c0.2-1,0.6-1.9,1.1-2.5s1.2-0.9,1.9-0.9s1.3,0.3,1.6,0.9c0.3,0.6,0.4,1.5,0.2,2.5s-0.6,1.9-1.1,2.5s-1.2,0.9-1.9,0.9
		s-1.2-0.3-1.6-0.9C138.5-35.7,138.5-36.6,138.7-37.6z"/>
	<polygon points="144.2,-34.4 145.4,-40.9 146.4,-40.9 147.6,-36.4 148.4,-40.9 149.4,-40.9 148.2,-34.4 147.2,-34.4 146,-38.8 
		145.2,-34.4 	"/>
	<path d="M157.2-36.6c0,0.8-0.2,1.4-0.6,1.8c-0.4,0.4-0.9,0.7-1.5,0.7c-0.7,0-1.3-0.3-1.7-0.9c-0.4-0.6-0.6-1.5-0.6-2.6
		s0.2-2,0.6-2.6c0.4-0.6,1-0.9,1.7-0.9c0.6,0,1.1,0.2,1.4,0.6c0.4,0.4,0.5,1,0.6,1.8h-1c0-0.4-0.2-0.7-0.3-0.9
		c-0.2-0.2-0.4-0.3-0.7-0.3c-0.4,0-0.8,0.2-1,0.6c-0.2,0.4-0.3,1-0.3,1.7s0.1,1.3,0.3,1.7s0.5,0.6,1,0.6c0.3,0,0.5-0.1,0.7-0.3
		s0.3-0.5,0.4-0.9L157.2-36.6L157.2-36.6z"/>
	<path d="M159.4-37.5c0,0.7,0.1,1.3,0.3,1.7s0.5,0.6,1,0.6c0.4,0,0.7-0.2,1-0.6c0.2-0.4,0.3-1,0.3-1.7s-0.1-1.3-0.3-1.7
		s-0.5-0.6-1-0.6c-0.4,0-0.7,0.2-1,0.6C159.5-38.8,159.4-38.2,159.4-37.5L159.4-37.5z M158.4-37.5c0-1,0.2-1.9,0.6-2.5
		c0.4-0.6,1-0.9,1.7-0.9s1.2,0.3,1.7,0.9c0.4,0.6,0.6,1.5,0.6,2.5s-0.2,1.9-0.6,2.5c-0.4,0.6-1,0.9-1.7,0.9s-1.2-0.3-1.7-0.9
		C158.6-35.6,158.4-36.5,158.4-37.5z"/>
	<polygon points="164.2,-34.3 164.2,-40.8 165.2,-40.8 167.1,-36.3 167.1,-40.8 168.1,-40.8 168.1,-34.3 167.1,-34.3 165.2,-38.7 
		165.2,-34.3 	"/>
	<path d="M172.9-35c-0.2,0.3-0.4,0.6-0.6,0.7c-0.2,0.2-0.5,0.2-0.8,0.2c-0.7,0-1.2-0.3-1.6-0.9c-0.4-0.6-0.6-1.5-0.6-2.5
		s0.2-1.9,0.6-2.5c0.4-0.6,0.9-0.9,1.6-0.9c0.6,0,1.1,0.2,1.4,0.6c0.4,0.4,0.6,0.9,0.7,1.6h-1c-0.1-0.3-0.2-0.6-0.4-0.8
		s-0.4-0.3-0.7-0.3c-0.4,0-0.7,0.2-0.9,0.6c-0.2,0.4-0.3,0.9-0.3,1.7c0,0.7,0.1,1.3,0.3,1.7s0.5,0.6,1,0.6c0.3,0,0.6-0.1,0.8-0.4
		c0.2-0.2,0.3-0.6,0.4-1h-1.1v-1.1h1.9v3.5H173L172.9-35z"/>
	<path d="M176.1-37.9h1.1c0.2,0,0.4-0.1,0.5-0.2c0.1-0.1,0.2-0.4,0.2-0.7s-0.1-0.5-0.2-0.6c-0.1-0.1-0.3-0.2-0.5-0.2H176L176.1-37.9
		L176.1-37.9z M175.1-34.3v-6.5h2.3c0.5,0,0.9,0.2,1.1,0.5c0.2,0.3,0.4,0.8,0.4,1.4c0,0.4-0.1,0.7-0.2,1c-0.1,0.3-0.3,0.4-0.5,0.5
		c0.2,0.1,0.3,0.3,0.4,0.5c0.1,0.2,0.1,0.5,0.1,1v0.8l0,0c0,0.4,0.1,0.6,0.2,0.7v0.2h-1c0-0.1-0.1-0.2-0.1-0.3s0-0.3,0-0.5v-0.7
		c0-0.4-0.1-0.7-0.2-0.8c-0.1-0.1-0.3-0.2-0.5-0.2h-1v2.5h-1V-34.3z"/>
	<polygon points="180.3,-34.3 180.3,-40.8 183.7,-40.8 183.7,-39.6 181.2,-39.6 181.2,-38.3 183.5,-38.3 183.5,-37.1 181.2,-37.1 
		181.2,-35.5 183.8,-35.5 183.8,-34.3 	"/>
	<path d="M184.9-36.3h0.9c0,0.4,0.1,0.6,0.3,0.8s0.4,0.3,0.7,0.3s0.5-0.1,0.6-0.2c0.1-0.1,0.2-0.3,0.2-0.6c0-0.4-0.4-0.7-1.2-1l0,0
		h-0.1c-0.4-0.1-0.7-0.3-0.9-0.4c-0.2-0.1-0.3-0.3-0.4-0.6c-0.1-0.2-0.1-0.5-0.1-0.9c0-0.6,0.2-1.1,0.5-1.5c0.3-0.3,0.7-0.5,1.3-0.5
		c0.5,0,1,0.2,1.3,0.5c0.3,0.4,0.5,0.9,0.5,1.5h-0.9c0-0.3-0.1-0.6-0.3-0.7c-0.2-0.2-0.4-0.2-0.7-0.2c-0.2,0-0.4,0.1-0.6,0.2
		c-0.1,0.1-0.2,0.3-0.2,0.6s0.3,0.6,0.8,0.8c0.1,0,0.3,0.1,0.3,0.1c0.3,0.1,0.6,0.2,0.7,0.3c0.1,0.1,0.3,0.1,0.4,0.2
		c0.2,0.1,0.3,0.3,0.4,0.6c0.1,0.2,0.1,0.5,0.1,0.9c0,0.7-0.2,1.2-0.5,1.6c-0.3,0.4-0.8,0.6-1.4,0.6c-0.6,0-1-0.2-1.4-0.6
		C185.1-35,184.9-35.6,184.9-36.3z"/>
	<path d="M189.8-36.3h0.9c0,0.4,0.1,0.6,0.3,0.8s0.4,0.3,0.7,0.3s0.5-0.1,0.6-0.2c0.1-0.1,0.2-0.3,0.2-0.6c0-0.4-0.4-0.7-1.2-1l0,0
		h-0.1c-0.4-0.1-0.7-0.3-0.9-0.4c-0.2-0.1-0.3-0.3-0.4-0.6c-0.1-0.2-0.1-0.5-0.1-0.9c0-0.6,0.2-1.1,0.5-1.5c0.3-0.3,0.7-0.5,1.3-0.5
		c0.5,0,1,0.2,1.3,0.5c0.3,0.4,0.5,0.9,0.5,1.5h-0.9c0-0.3-0.1-0.6-0.3-0.7c-0.2-0.2-0.4-0.2-0.7-0.2c-0.2,0-0.4,0.1-0.6,0.2
		c-0.1,0.1-0.2,0.3-0.2,0.6s0.3,0.6,0.8,0.8c0.1,0,0.3,0.1,0.3,0.1c0.3,0.1,0.6,0.2,0.7,0.3c0.1,0.1,0.3,0.1,0.4,0.2
		c0.2,0.1,0.3,0.3,0.4,0.6c0.1,0.2,0.1,0.5,0.1,0.9c0,0.7-0.2,1.2-0.5,1.6c-0.3,0.4-0.8,0.6-1.4,0.6c-0.6,0-1-0.2-1.4-0.6
		C190-35,189.9-35.6,189.8-36.3z"/>
	<polygon points="65.2,-26.2 65.2,-29.1 64.1,-29.1 64.1,-29.6 66.7,-29.6 66.7,-29.1 65.6,-29.1 65.6,-26.2 	"/>
	<path d="M68.4-26.5c-0.1,0.1-0.3,0.2-0.4,0.3s-0.3,0.1-0.5,0.1c-0.3,0-0.4-0.1-0.6-0.2c-0.1-0.1-0.2-0.3-0.2-0.5s0.1-0.4,0.2-0.5
		s0.3-0.2,0.6-0.2c0.1,0,0.2,0,0.3,0c0.2,0,0.3,0,0.4-0.1c0,0,0.1,0,0.1-0.1c0,0,0-0.1,0-0.2s0-0.2-0.1-0.3
		c-0.1-0.1-0.2-0.1-0.4-0.1c-0.2,0-0.3,0-0.4,0.1s-0.1,0.2-0.1,0.3h-0.4l0,0c0-0.2,0.1-0.4,0.3-0.6c0.2-0.1,0.4-0.2,0.7-0.2
		c0.3,0,0.6,0.1,0.7,0.2c0.2,0.1,0.2,0.3,0.2,0.6v1.2c0,0.1,0,0.2,0,0.2h0.1l0,0c0,0,0,0,0.1,0v0.3c-0.1,0-0.1,0-0.1,0h-0.1
		c-0.1,0-0.2,0-0.3-0.1C68.4-26.3,68.4-26.4,68.4-26.5L68.4-26.5L68.4-26.5z M68.3-27.4c-0.1,0.1-0.3,0.1-0.6,0.1
		c-0.1,0-0.2,0-0.2,0c-0.1,0-0.3,0.1-0.3,0.1c-0.1,0.1-0.1,0.2-0.1,0.3s0,0.2,0.1,0.3s0.2,0.1,0.3,0.1c0.2,0,0.4-0.1,0.5-0.2
		s0.2-0.3,0.2-0.4L68.3-27.4L68.3-27.4z"/>
	<path d="M69.8-29.1v-0.5h0.4v0.5H69.8L69.8-29.1z M69.8-26.2v-2.5h0.4v2.5H69.8z"/>
	<path d="M71.6-27.4c0,0.3,0.1,0.5,0.2,0.7s0.3,0.2,0.5,0.2s0.4-0.1,0.5-0.3c0.1-0.2,0.2-0.4,0.2-0.7s-0.1-0.5-0.2-0.7
		s-0.3-0.2-0.5-0.2s-0.4,0.1-0.5,0.2C71.6-27.9,71.6-27.7,71.6-27.4L71.6-27.4z M71.2-25.2v-3.4h0.4v0.3c0.1-0.1,0.2-0.3,0.3-0.3
		c0.1-0.1,0.3-0.1,0.5-0.1c0.3,0,0.6,0.1,0.8,0.4c0.2,0.2,0.3,0.6,0.3,0.9c0,0.4-0.1,0.7-0.3,1C73-26.2,72.7-26,72.4-26
		c-0.2,0-0.3,0-0.5-0.1c-0.1-0.1-0.2-0.2-0.3-0.3v1.2C71.6-25.2,71.2-25.2,71.2-25.2z"/>
	<path d="M74.6-27.6h1.3c0-0.2-0.1-0.4-0.2-0.5s-0.3-0.2-0.5-0.2s-0.4,0.1-0.5,0.2C74.7-28,74.7-27.9,74.6-27.6L74.6-27.6z M76-27
		h0.4c0,0.3-0.2,0.5-0.4,0.6c-0.2,0.2-0.4,0.2-0.7,0.2c-0.3,0-0.6-0.1-0.8-0.3s-0.3-0.5-0.3-0.9s0.1-0.7,0.3-1
		c0.2-0.2,0.5-0.4,0.8-0.4c0.4,0,0.6,0.1,0.8,0.3c0.2,0.2,0.3,0.5,0.3,0.9v0.1c0,0,0,0,0,0.1h-1.8c0,0.3,0.1,0.5,0.2,0.6
		s0.3,0.2,0.5,0.2s0.3,0,0.4-0.1C75.9-26.7,75.9-26.8,76-27z"/>
	<path d="M77.2-29.1v-0.5h0.4v0.5H77.2L77.2-29.1z M77.2-26.2v-2.5h0.4v2.5H77.2z"/>
	<path d="M78.7-26.2v-0.5h0.5v0.5c0,0.2,0,0.3-0.1,0.4s-0.2,0.2-0.3,0.2v-0.2c0.1,0,0.1-0.1,0.2-0.1c0-0.1,0.1-0.2,0.1-0.3l0,0H78.7
		z"/>
	<polygon points="82,-26.2 82,-29.1 80.9,-29.1 80.9,-29.6 83.5,-29.6 83.5,-29.1 82.5,-29.1 82.5,-26.2 	"/>
	<path d="M85.2-26.5c-0.1,0.1-0.3,0.2-0.4,0.3c-0.1,0.1-0.3,0.1-0.5,0.1c-0.3,0-0.4-0.1-0.6-0.2c-0.1-0.1-0.2-0.3-0.2-0.5
		s0.1-0.4,0.2-0.5s0.3-0.2,0.6-0.2c0.1,0,0.2,0,0.3,0c0.2,0,0.3,0,0.4-0.1c0,0,0.1,0,0.1-0.1c0,0,0-0.1,0-0.2s0-0.2-0.1-0.3
		c-0.1-0.1-0.2-0.1-0.4-0.1c-0.2,0-0.3,0-0.4,0.1s-0.1,0.2-0.1,0.3h-0.4l0,0c0-0.2,0.1-0.4,0.3-0.6c0.2-0.1,0.4-0.2,0.7-0.2
		s0.6,0.1,0.7,0.2c0.2,0.1,0.2,0.3,0.2,0.6v1.2c0,0.1,0,0.2,0,0.2h0.1l0,0c0,0,0,0,0.1,0v0.3c-0.1,0-0.1,0-0.1,0h-0.1
		c-0.1,0-0.2,0-0.3-0.1C85.2-26.3,85.2-26.4,85.2-26.5L85.2-26.5L85.2-26.5z M85.2-27.4c-0.1,0.1-0.3,0.1-0.6,0.1
		c-0.1,0-0.2,0-0.2,0c-0.1,0-0.3,0.1-0.3,0.1C84-27.1,84-27,84-26.9s0,0.2,0.1,0.3c0.1,0.1,0.2,0.1,0.3,0.1c0.2,0,0.4-0.1,0.5-0.2
		s0.2-0.3,0.2-0.4L85.2-27.4L85.2-27.4z"/>
	<path d="M86.6-29.1v-0.5H87v0.5H86.6L86.6-29.1z M86.6-26.2v-2.5H87v2.5H86.6z"/>
	<polygon points="88.5,-26.2 87.7,-28.6 88.1,-28.6 88.7,-26.8 89.1,-28.6 89.6,-28.6 90.1,-26.8 90.6,-28.6 91.1,-28.6 90.3,-26.2 
		89.9,-26.2 89.4,-28.1 88.9,-26.2 	"/>
	<path d="M93.3-26.5c-0.1,0.1-0.3,0.2-0.4,0.3c-0.1,0.1-0.3,0.1-0.5,0.1c-0.3,0-0.4-0.1-0.6-0.2c-0.1-0.1-0.2-0.3-0.2-0.5
		s0.1-0.4,0.2-0.5s0.3-0.2,0.6-0.2c0.1,0,0.2,0,0.3,0c0.2,0,0.3,0,0.4-0.1c0,0,0.1,0,0.1-0.1c0,0,0-0.1,0-0.2s0-0.2-0.1-0.3
		c-0.1-0.1-0.2-0.1-0.4-0.1s-0.3,0-0.4,0.1s-0.1,0.2-0.1,0.3h-0.4l0,0c0-0.2,0.1-0.4,0.3-0.6c0.2-0.1,0.4-0.2,0.7-0.2
		c0.3,0,0.6,0.1,0.7,0.2c0.2,0.1,0.2,0.3,0.2,0.6v1.2c0,0.1,0,0.2,0,0.2h0.1l0,0c0,0,0,0,0.1,0v0.3c-0.1,0-0.1,0-0.1,0h-0.1
		c-0.1,0-0.2,0-0.3-0.1C93.3-26.3,93.3-26.4,93.3-26.5L93.3-26.5L93.3-26.5z M93.2-27.4c-0.1,0.1-0.3,0.1-0.6,0.1
		c-0.1,0-0.2,0-0.2,0c-0.1,0-0.3,0.1-0.3,0.1C92-27.1,92-27,92-26.9s0,0.2,0.1,0.3c0.1,0.1,0.2,0.1,0.3,0.1c0.2,0,0.4-0.1,0.5-0.2
		s0.2-0.3,0.2-0.4L93.2-27.4L93.2-27.4z"/>
	<path d="M96.3-26.2v-1.5c0-0.2,0-0.4-0.1-0.5s-0.2-0.1-0.4-0.1c-0.2,0-0.4,0.1-0.5,0.2s-0.2,0.3-0.2,0.6v1.3h-0.4v-2.5h0.4v0.4
		c0.1-0.1,0.2-0.2,0.3-0.3s0.3-0.1,0.5-0.1s0.3,0,0.5,0.1c0.1,0.1,0.2,0.1,0.3,0.3c0,0.1,0.1,0.1,0.1,0.2s0,0.2,0,0.4v0.1v1.4H96.3z
		"/>
	<path d="M102.7-27.6h1.1l-0.5-1.5L102.7-27.6L102.7-27.6z M101.7-26.2l1.3-3.4h0.5l1.3,3.4h-0.5l-0.4-1h-1.3l-0.4,1H101.7z"/>
	<path d="M105.8-27.4c0,0.3,0.1,0.5,0.2,0.7s0.3,0.2,0.5,0.2s0.4-0.1,0.5-0.3c0.1-0.2,0.2-0.4,0.2-0.7s-0.1-0.5-0.2-0.7
		s-0.3-0.2-0.5-0.2s-0.4,0.1-0.5,0.2C105.8-27.9,105.8-27.7,105.8-27.4L105.8-27.4z M105.4-25.2v-3.4h0.4v0.3
		c0.1-0.1,0.2-0.3,0.3-0.3c0.1-0.1,0.3-0.1,0.5-0.1c0.3,0,0.6,0.1,0.8,0.4c0.2,0.2,0.3,0.6,0.3,0.9c0,0.4-0.1,0.7-0.3,1
		c-0.2,0.2-0.5,0.4-0.8,0.4c-0.2,0-0.3,0-0.5-0.1c-0.1-0.1-0.2-0.2-0.3-0.3v1.2H105.4z"/>
	<path d="M108.5-26.2v-2.5h0.4v0.5c0.1-0.2,0.2-0.3,0.3-0.4c0.1-0.1,0.2-0.1,0.4-0.1h0.1l0,0v0.5l0,0c0,0,0,0-0.1,0
		c-0.2,0-0.4,0.1-0.5,0.2s-0.2,0.3-0.2,0.5v1.3H108.5z"/>
	<path d="M110.4-29.1v-0.5h0.4v0.5H110.4L110.4-29.1z M110.4-26.2v-2.5h0.4v2.5H110.4z"/>
	<rect x="111.8" y="-29.6" width="0.4" height="3.4"/>
	<path d="M114-26.2L114-26.2c0-0.3,0.1-0.6,0.2-0.8c0.2-0.2,0.4-0.4,0.8-0.6l0.3-0.2c0.2-0.1,0.3-0.2,0.4-0.3
		c0.1-0.1,0.1-0.2,0.1-0.4s-0.1-0.3-0.2-0.4s-0.3-0.2-0.5-0.2s-0.4,0.1-0.5,0.2s-0.2,0.3-0.2,0.6l0,0H114v-0.1
		c0-0.3,0.1-0.6,0.3-0.8s0.5-0.3,0.8-0.3s0.6,0.1,0.8,0.3s0.3,0.4,0.3,0.7c0,0.2-0.1,0.4-0.2,0.6s-0.3,0.3-0.5,0.4l-0.3,0.1
		c-0.3,0.1-0.4,0.3-0.6,0.4c-0.1,0.1-0.2,0.2-0.2,0.4h1.8v0.4C116.2-26.2,114-26.2,114-26.2z"/>
	<path d="M116.9-27.2h0.4c0,0.2,0.1,0.4,0.2,0.5s0.3,0.2,0.5,0.2s0.4-0.1,0.5-0.2s0.2-0.3,0.2-0.5s-0.1-0.3-0.2-0.4
		s-0.3-0.2-0.5-0.2c0,0-0.1,0-0.2,0l0,0v-0.4c0,0,0,0,0.1,0c0,0,0,0,0.1,0c0.2,0,0.4,0,0.5-0.1s0.2-0.2,0.2-0.4s0-0.3-0.1-0.4
		s-0.2-0.1-0.4-0.1s-0.4,0.1-0.5,0.2s-0.2,0.3-0.2,0.5h-0.4l0,0c0-0.3,0.1-0.6,0.3-0.8s0.4-0.3,0.7-0.3c0.3,0,0.6,0.1,0.8,0.2
		c0.2,0.2,0.3,0.4,0.3,0.6s0,0.3-0.1,0.4s-0.2,0.2-0.3,0.3c0.2,0.1,0.3,0.2,0.4,0.3c0.1,0.1,0.1,0.3,0.1,0.5c0,0.3-0.1,0.6-0.3,0.8
		s-0.5,0.3-0.9,0.3c-0.3,0-0.6-0.1-0.8-0.3C117-26.6,116.9-26.8,116.9-27.2L116.9-27.2z"/>
	<rect x="119.9" y="-27.6" width="1.1" height="0.4"/>
	<path d="M121.7-26.2L121.7-26.2c0-0.3,0.1-0.6,0.2-0.8c0.2-0.2,0.4-0.4,0.8-0.6l0.3-0.2c0.2-0.1,0.3-0.2,0.4-0.3
		c0.1-0.1,0.1-0.2,0.1-0.4s-0.1-0.3-0.2-0.4s-0.3-0.2-0.5-0.2s-0.4,0.1-0.5,0.2s-0.2,0.3-0.2,0.6l0,0h-0.4v-0.1
		c0-0.3,0.1-0.6,0.3-0.8s0.5-0.3,0.8-0.3s0.6,0.1,0.8,0.3s0.3,0.4,0.3,0.7c0,0.2-0.1,0.4-0.2,0.6s-0.3,0.3-0.5,0.4l-0.3,0.1
		c-0.3,0.1-0.4,0.3-0.6,0.4c-0.1,0.1-0.2,0.2-0.2,0.4h1.8v0.4C123.9-26.2,121.7-26.2,121.7-26.2z"/>
	<path d="M124.6-27h0.4c0,0.2,0.1,0.3,0.2,0.4s0.3,0.1,0.4,0.1c0.2,0,0.4-0.1,0.5-0.2s0.2-0.3,0.2-0.5s-0.1-0.4-0.2-0.5
		s-0.3-0.2-0.5-0.2c-0.1,0-0.2,0-0.3,0.1c-0.1,0.1-0.2,0.1-0.3,0.2h-0.4l0.3-1.7h1.7v0.4h-1.4l-0.1,0.9c0.1-0.1,0.2-0.1,0.3-0.2
		c0.1,0,0.2-0.1,0.3-0.1c0.3,0,0.6,0.1,0.8,0.3c0.2,0.2,0.3,0.5,0.3,0.8s-0.1,0.6-0.3,0.8s-0.5,0.3-0.8,0.3s-0.6-0.1-0.8-0.3
		C124.8-26.5,124.6-26.7,124.6-27z"/>
	<path d="M127.8-26.2v-0.5h0.5v0.5c0,0.2,0,0.3-0.1,0.4s-0.2,0.2-0.3,0.2v-0.2c0.1,0,0.1-0.1,0.2-0.1c0-0.1,0.1-0.2,0.1-0.3l0,0
		H127.8z"/>
	<path d="M130.1-26.2L130.1-26.2c0-0.3,0.1-0.6,0.2-0.8c0.2-0.2,0.4-0.4,0.8-0.6l0.3-0.2c0.2-0.1,0.3-0.2,0.4-0.3
		c0.1-0.1,0.1-0.2,0.1-0.4s-0.1-0.3-0.2-0.4c-0.1-0.1-0.3-0.2-0.5-0.2s-0.4,0.1-0.5,0.2s-0.2,0.3-0.2,0.6l0,0h-0.4v-0.1
		c0-0.3,0.1-0.6,0.3-0.8c0.2-0.2,0.5-0.3,0.8-0.3s0.6,0.1,0.8,0.3c0.2,0.2,0.3,0.4,0.3,0.7c0,0.2-0.1,0.4-0.2,0.6
		c-0.1,0.2-0.3,0.3-0.5,0.4l-0.3,0.1c-0.3,0.1-0.4,0.3-0.6,0.4c-0.1,0.1-0.2,0.2-0.2,0.4h1.8v0.4C132.3-26.2,130.1-26.2,130.1-26.2z
		"/>
	<path d="M133.5-27.8c0,0.5,0.1,0.8,0.2,1s0.3,0.3,0.5,0.3s0.4-0.1,0.5-0.3s0.2-0.5,0.2-1s-0.1-0.8-0.2-1c-0.1-0.2-0.3-0.3-0.5-0.3
		s-0.4,0.1-0.5,0.3C133.6-28.6,133.5-28.2,133.5-27.8L133.5-27.8z M133.1-27.8c0-0.6,0.1-1,0.3-1.3s0.5-0.4,0.8-0.4
		c0.4,0,0.7,0.1,0.8,0.4c0.2,0.3,0.3,0.7,0.3,1.3s-0.1,1-0.3,1.3s-0.5,0.4-0.8,0.4c-0.4,0-0.6-0.1-0.8-0.4
		C133.2-26.8,133.1-27.2,133.1-27.8z"/>
	<path d="M136-26.2L136-26.2c0-0.3,0.1-0.6,0.2-0.8c0.2-0.2,0.4-0.4,0.8-0.6l0.3-0.2c0.2-0.1,0.3-0.2,0.4-0.3
		c0.1-0.1,0.1-0.2,0.1-0.4s-0.1-0.3-0.2-0.4c-0.1-0.1-0.3-0.2-0.5-0.2s-0.4,0.1-0.5,0.2s-0.2,0.3-0.2,0.6l0,0H136v-0.1
		c0-0.3,0.1-0.6,0.3-0.8s0.5-0.3,0.8-0.3s0.6,0.1,0.8,0.3s0.3,0.4,0.3,0.7c0,0.2-0.1,0.4-0.2,0.6c-0.1,0.2-0.3,0.3-0.5,0.4l-0.3,0.1
		c-0.3,0.1-0.4,0.3-0.6,0.4c-0.1,0.1-0.2,0.2-0.2,0.4h1.8v0.4C138.2-26.2,136-26.2,136-26.2z"/>
	<path d="M140-26.2v-2.3h-0.8v-0.3c0.3,0,0.5-0.1,0.6-0.2s0.2-0.3,0.2-0.5h0.3v3.3H140z"/>
	<polygon points="146.8,-26.2 146.1,-28.6 146.5,-28.6 147,-26.8 147.5,-28.6 148,-28.6 148.5,-26.8 149,-28.6 149.4,-28.6 
		148.7,-26.2 148.3,-26.2 147.8,-28.1 147.2,-26.2 	"/>
	<polygon points="150.6,-26.2 149.9,-28.6 150.3,-28.6 150.8,-26.8 151.3,-28.6 151.8,-28.6 152.2,-26.8 152.8,-28.6 153.2,-28.6 
		152.5,-26.2 152,-26.2 151.5,-28.1 151,-26.2 	"/>
	<polygon points="154.4,-26.2 153.6,-28.6 154.1,-28.6 154.6,-26.8 155.1,-28.6 155.5,-28.6 156,-26.8 156.6,-28.6 157,-28.6 
		156.2,-26.2 155.8,-26.2 155.3,-28.1 154.8,-26.2 	"/>
	<rect x="157.5" y="-26.7" width="0.5" height="0.5"/>
	<polygon points="159.5,-26.2 158.8,-28.6 159.2,-28.6 159.7,-26.8 160.2,-28.6 160.7,-28.6 161.1,-26.8 161.7,-28.6 162.1,-28.6 
		161.4,-26.2 160.9,-26.2 160.4,-28.1 159.9,-26.2 	"/>
	<polygon points="163.4,-26.2 162.5,-28.6 162.9,-28.6 163.6,-26.7 164.3,-28.6 164.7,-28.6 163.8,-26.2 	"/>
	<path d="M166.9-26.5c-0.1,0.1-0.3,0.2-0.4,0.3c-0.1,0.1-0.3,0.1-0.5,0.1c-0.3,0-0.4-0.1-0.6-0.2c-0.1-0.1-0.2-0.3-0.2-0.5
		s0.1-0.4,0.2-0.5c0.1-0.1,0.3-0.2,0.6-0.2c0.1,0,0.2,0,0.3,0c0.2,0,0.3,0,0.4-0.1c0,0,0.1,0,0.1-0.1c0,0,0-0.1,0-0.2s0-0.2-0.1-0.3
		s-0.2-0.1-0.4-0.1s-0.3,0-0.4,0.1c-0.1,0.1-0.1,0.2-0.1,0.3h-0.4l0,0c0-0.2,0.1-0.4,0.3-0.6c0.2-0.1,0.4-0.2,0.7-0.2
		s0.6,0.1,0.7,0.2c0.2,0.1,0.2,0.3,0.2,0.6v1.2c0,0.1,0,0.2,0,0.2h0.1l0,0c0,0,0,0,0.1,0v0.3c-0.1,0-0.1,0-0.1,0h-0.1
		c-0.1,0-0.2,0-0.3-0.1C167-26.3,166.9-26.4,166.9-26.5L166.9-26.5L166.9-26.5z M166.9-27.4c-0.1,0.1-0.3,0.1-0.6,0.1
		c-0.1,0-0.2,0-0.2,0c-0.1,0-0.3,0.1-0.3,0.1c-0.1,0.1-0.1,0.2-0.1,0.3s0,0.2,0.1,0.3s0.2,0.1,0.3,0.1c0.2,0,0.4-0.1,0.5-0.2
		s0.2-0.3,0.2-0.4v-0.3H166.9z"/>
	<path d="M170-27.8c0-0.2-0.1-0.3-0.2-0.4c-0.1-0.1-0.3-0.1-0.4-0.1c-0.2,0-0.4,0.1-0.5,0.2c-0.1,0.2-0.2,0.4-0.2,0.7
		s0.1,0.5,0.2,0.7c0.1,0.2,0.3,0.2,0.5,0.2s0.3,0,0.5-0.1c0.1-0.1,0.2-0.2,0.2-0.4h0.4c0,0.3-0.1,0.5-0.3,0.7s-0.4,0.3-0.8,0.3
		c-0.3,0-0.6-0.1-0.8-0.3s-0.3-0.5-0.3-0.9s0.1-0.7,0.3-1c0.2-0.2,0.5-0.3,0.8-0.3s0.6,0.1,0.7,0.2c0.2,0.2,0.3,0.4,0.3,0.7H170
		V-27.8z"/>
	<path d="M171-26.2L171-26.2c0-0.3,0.1-0.6,0.2-0.8c0.2-0.2,0.4-0.4,0.8-0.6l0.3-0.2c0.2-0.1,0.3-0.2,0.4-0.3
		c0.1-0.1,0.1-0.2,0.1-0.4s-0.1-0.3-0.2-0.4c-0.1-0.1-0.3-0.2-0.5-0.2s-0.4,0.1-0.5,0.2s-0.2,0.3-0.2,0.6l0,0H171v-0.1
		c0-0.3,0.1-0.6,0.3-0.8s0.5-0.3,0.8-0.3s0.6,0.1,0.8,0.3s0.3,0.4,0.3,0.7c0,0.2-0.1,0.4-0.2,0.6s-0.3,0.3-0.5,0.4l-0.3,0.1
		c-0.3,0.1-0.4,0.3-0.6,0.4c-0.1,0.1-0.2,0.2-0.2,0.4h1.8v0.4C173.2-26.2,171-26.2,171-26.2z"/>
	<path d="M174.4-27.8c0,0.5,0.1,0.8,0.2,1c0.1,0.2,0.3,0.3,0.5,0.3s0.4-0.1,0.5-0.3s0.2-0.5,0.2-1s-0.1-0.8-0.2-1
		c-0.1-0.2-0.3-0.3-0.5-0.3s-0.4,0.1-0.5,0.3C174.4-28.6,174.4-28.2,174.4-27.8L174.4-27.8z M173.9-27.8c0-0.6,0.1-1,0.3-1.3
		s0.5-0.4,0.8-0.4c0.4,0,0.7,0.1,0.8,0.4c0.2,0.3,0.3,0.7,0.3,1.3s-0.1,1-0.3,1.3s-0.5,0.4-0.8,0.4c-0.4,0-0.6-0.1-0.8-0.4
		S173.9-27.2,173.9-27.8z"/>
	<path d="M176.8-26.2L176.8-26.2c0-0.3,0.1-0.6,0.2-0.8c0.2-0.2,0.4-0.4,0.8-0.6l0.3-0.2c0.2-0.1,0.3-0.2,0.4-0.3
		c0.1-0.1,0.1-0.2,0.1-0.4s-0.1-0.3-0.2-0.4c-0.1-0.1-0.3-0.2-0.5-0.2s-0.4,0.1-0.5,0.2s-0.2,0.3-0.2,0.6l0,0h-0.4v-0.1
		c0-0.3,0.1-0.6,0.3-0.8s0.5-0.3,0.8-0.3s0.6,0.1,0.8,0.3s0.3,0.4,0.3,0.7c0,0.2-0.1,0.4-0.2,0.6c-0.1,0.2-0.3,0.3-0.5,0.4l-0.3,0.1
		c-0.3,0.1-0.4,0.3-0.6,0.4c-0.1,0.1-0.2,0.2-0.2,0.4h1.8v0.4C179-26.2,176.8-26.2,176.8-26.2z"/>
	<path d="M180.8-26.2v-2.3H180v-0.3c0.3,0,0.5-0.1,0.6-0.2s0.2-0.3,0.2-0.5h0.3v3.3H180.8z"/>
	<rect x="183" y="-26.7" width="0.5" height="0.5"/>
	<path d="M186.1-27.8c0-0.2-0.1-0.3-0.2-0.4c-0.1-0.1-0.3-0.1-0.4-0.1c-0.2,0-0.4,0.1-0.5,0.2c-0.1,0.2-0.2,0.4-0.2,0.7
		s0.1,0.5,0.2,0.7c0.1,0.2,0.3,0.2,0.5,0.2s0.3,0,0.5-0.1c0.1-0.1,0.2-0.2,0.2-0.4h0.4c0,0.3-0.1,0.5-0.3,0.7s-0.4,0.3-0.8,0.3
		c-0.3,0-0.6-0.1-0.8-0.3s-0.3-0.5-0.3-0.9s0.1-0.7,0.3-1c0.2-0.2,0.5-0.3,0.8-0.3s0.6,0.1,0.7,0.2c0.2,0.2,0.3,0.4,0.3,0.7h-0.4
		V-27.8z"/>
	<path d="M187.6-27.4c0,0.3,0.1,0.5,0.2,0.7c0.1,0.2,0.3,0.2,0.6,0.2c0.2,0,0.4-0.1,0.6-0.2c0.1-0.2,0.2-0.4,0.2-0.7
		s-0.1-0.5-0.2-0.7c-0.1-0.2-0.3-0.2-0.6-0.2c-0.2,0-0.4,0.1-0.6,0.2C187.7-27.9,187.6-27.7,187.6-27.4L187.6-27.4z M187.2-27.4
		c0-0.4,0.1-0.7,0.3-1c0.2-0.2,0.5-0.3,0.9-0.3s0.7,0.1,0.9,0.3s0.3,0.5,0.3,1c0,0.4-0.1,0.7-0.3,1c-0.2,0.2-0.5,0.3-0.9,0.3
		s-0.7-0.1-0.9-0.3C187.3-26.7,187.2-27,187.2-27.4z"/>
	<path d="M193.4-26.2v-1.5c0-0.2,0-0.4-0.1-0.5s-0.2-0.1-0.4-0.1s-0.4,0.1-0.5,0.2s-0.2,0.3-0.2,0.5v1.4h-0.4v-1.5
		c0-0.2,0-0.4-0.1-0.5s-0.2-0.1-0.3-0.1c-0.2,0-0.4,0.1-0.5,0.2s-0.2,0.3-0.2,0.5v1.4h-0.4v-2.5h0.4v0.3c0.1-0.1,0.2-0.2,0.3-0.3
		s0.3-0.1,0.4-0.1c0.2,0,0.3,0,0.4,0.1c0.1,0.1,0.2,0.2,0.3,0.3c0.1-0.1,0.2-0.2,0.4-0.3c0.1-0.1,0.3-0.1,0.4-0.1
		c0.2,0,0.3,0,0.4,0.1c0.1,0.1,0.2,0.1,0.3,0.2c0,0.1,0.1,0.1,0.1,0.2s0,0.2,0,0.4v0.1v1.6C193.7-26.2,193.4-26.2,193.4-26.2z"/>
	<rect x="99.3" y="-29.9" width="0.2" height="4.7"/>
	<rect x="143.6" y="-29.9" width="0.2" height="4.7"/>
</g>
<g>
	<path class="st9" d="M83.8,21.9h-3.6l-4-13.2l-4,13.2h-3.6L62.8,0.1h4.4l3.4,13.8l4-13.8h3.2l4,13.8l3.4-13.8h4.4L83.8,21.9z"/>
	<path class="st9" d="M100.3,21.9h-3.2L89.9,0.1h4.4l4.4,14.2l4.4-14.2h4.4L100.3,21.9z"/>
	<path class="st9" d="M121.5,21.9l-1.3-3.9h-7.8l-1.3,3.9h-4.4l7.9-21.8h3.3l8,21.8H121.5z M116.4,6.5l-2.8,7.9h5.4L116.4,6.5z"/>
	<path class="st9" d="M142.7,18.2c-0.5,0.9-1.1,1.6-1.8,2.2s-1.5,1-2.4,1.3s-1.9,0.4-2.9,0.4c-1.2,0-2.3-0.2-3.3-0.6s-1.8-1-2.6-1.8
		c-0.6-0.6-1-1.1-1.3-1.8c-0.3-0.6-0.5-1.3-0.6-2c-0.1-0.7-0.2-1.5-0.2-2.3s0-1.7,0-2.6s0-1.8,0-2.6s0.1-1.6,0.2-2.3s0.3-1.4,0.6-2
		s0.7-1.2,1.3-1.8c0.8-0.8,1.7-1.4,2.6-1.8c1-0.4,2.1-0.6,3.3-0.6c1,0,2,0.1,2.9,0.4s1.7,0.7,2.4,1.3s1.3,1.3,1.8,2.2s0.8,1.9,1,3
		h-4.3c-0.2-0.9-0.6-1.6-1.2-2.2c-0.6-0.6-1.4-0.9-2.5-0.9c-0.6,0-1.1,0.1-1.6,0.3c-0.5,0.2-0.8,0.5-1.1,0.8
		c-0.2,0.2-0.4,0.5-0.5,0.8s-0.3,0.6-0.3,1.1c-0.1,0.4-0.1,1-0.2,1.7c0,0.7,0,1.6,0,2.6s0,1.9,0,2.6c0,0.7,0.1,1.3,0.2,1.7
		c0.1,0.4,0.2,0.8,0.3,1.1s0.3,0.5,0.5,0.8c0.3,0.3,0.7,0.6,1.1,0.8c0.5,0.2,1,0.3,1.6,0.3c1.1,0,1.9-0.3,2.5-0.9s1-1.3,1.2-2.2h4.3
		C143.5,16.3,143.2,17.3,142.7,18.2z"/>
	<path class="st9" d="M146.6,21.9v-3.6l8.2-9.5c0.4-0.5,0.7-0.9,0.9-1.3s0.3-0.8,0.3-1.3c0-0.8-0.2-1.5-0.7-2s-1.1-0.8-2-0.8
		c-0.3,0-0.6,0-1,0.1c-0.3,0.1-0.6,0.2-0.9,0.5c-0.3,0.2-0.5,0.5-0.6,0.9c-0.2,0.4-0.2,0.8-0.2,1.3h-4c0-1,0.2-1.9,0.5-2.7
		s0.8-1.5,1.4-2c0.6-0.6,1.3-1,2.1-1.3s1.7-0.4,2.6-0.4c1,0,1.9,0.1,2.7,0.4s1.5,0.7,2.1,1.3c0.6,0.5,1,1.2,1.4,2
		c0.3,0.8,0.5,1.7,0.5,2.7c0,0.5-0.1,1-0.2,1.4c-0.1,0.4-0.3,0.8-0.4,1.2c-0.2,0.4-0.4,0.8-0.7,1.1c-0.3,0.4-0.6,0.8-1,1.2l-6.1,7.1
		h8.4v3.6h-13.3V21.9z"/>
	<path class="st9" d="M175.9,18.4c-0.4,0.8-0.8,1.5-1.4,2c-0.6,0.6-1.3,1-2.1,1.3s-1.7,0.4-2.5,0.4c-0.9,0-1.7-0.1-2.5-0.4
		s-1.5-0.7-2.1-1.3s-1.1-1.2-1.5-2s-0.5-1.7-0.5-2.8V6.4c0-1,0.2-2,0.5-2.8c0.4-0.8,0.8-1.5,1.5-2c0.6-0.6,1.3-1,2.1-1.3
		s1.6-0.4,2.5-0.4s1.7,0.1,2.5,0.4s1.5,0.7,2.1,1.3s1.1,1.2,1.4,2c0.4,0.8,0.5,1.7,0.5,2.8v9.2C176.4,16.6,176.2,17.6,175.9,18.4z
		 M172.4,6.5c0-0.9-0.2-1.6-0.7-2.2c-0.5-0.5-1.1-0.8-1.9-0.8s-1.4,0.3-1.9,0.8s-0.7,1.3-0.7,2.2v9.1c0,0.9,0.2,1.6,0.7,2.2
		c0.5,0.5,1.1,0.8,1.9,0.8s1.4-0.3,1.9-0.8s0.7-1.2,0.7-2.2V6.5z"/>
	<path class="st9" d="M179.9,21.9v-3.6l8.2-9.5c0.4-0.5,0.7-0.9,0.9-1.3s0.3-0.8,0.3-1.3c0-0.8-0.2-1.5-0.7-2s-1.1-0.8-2-0.8
		c-0.3,0-0.6,0-1,0.1c-0.3,0.1-0.6,0.2-0.9,0.5c-0.3,0.2-0.5,0.5-0.6,0.9c-0.2,0.4-0.2,0.8-0.2,1.3h-4c0-1,0.2-1.9,0.5-2.7
		s0.8-1.5,1.4-2c0.6-0.6,1.3-1,2.1-1.3s1.7-0.4,2.6-0.4c1,0,1.9,0.1,2.7,0.4s1.5,0.7,2.1,1.3c0.6,0.5,1,1.2,1.4,2
		c0.3,0.8,0.5,1.7,0.5,2.7c0,0.5-0.1,1-0.2,1.4c-0.1,0.4-0.3,0.8-0.4,1.2c-0.2,0.4-0.4,0.8-0.7,1.1c-0.3,0.4-0.6,0.8-1,1.2l-6.1,7.1
		h8.4v3.6h-13.3V21.9z"/>
	<path class="st9" d="M209.4,18.4c-0.4,0.8-0.9,1.5-1.5,2s-1.4,0.9-2.2,1.2c-0.8,0.3-1.7,0.4-2.7,0.4c-0.9,0-1.8-0.1-2.6-0.4
		c-0.8-0.2-1.6-0.6-2.2-1.1c-0.6-0.5-1.2-1.2-1.5-2c-0.4-0.8-0.6-1.8-0.6-2.9h4c0,0.5,0.1,0.9,0.3,1.3s0.4,0.7,0.6,0.9
		c0.3,0.2,0.6,0.4,0.9,0.5c0.4,0.1,0.7,0.2,1.1,0.2c0.9,0,1.6-0.3,2.1-0.8c0.6-0.5,0.8-1.3,0.8-2.3c0-0.9-0.3-1.7-0.8-2.2
		s-1.3-0.8-2.3-0.8h-0.6V9h0.6c1,0,1.7-0.3,2.1-0.8c0.4-0.5,0.6-1.2,0.6-1.9c0-0.9-0.3-1.6-0.8-2.1s-1.2-0.7-1.9-0.7
		c-0.8,0-1.4,0.2-1.9,0.7s-0.8,1.1-0.8,1.9h-4c0-1,0.2-1.9,0.6-2.6c0.4-0.8,0.8-1.4,1.4-1.9c0.6-0.5,1.3-0.9,2.1-1.2
		s1.7-0.4,2.6-0.4c1,0,1.9,0.2,2.7,0.5s1.5,0.7,2.1,1.3s1.1,1.2,1.4,2c0.3,0.8,0.5,1.6,0.5,2.5c0,1.2-0.2,2.1-0.7,2.8
		s-1.1,1.3-1.8,1.6c0.8,0.4,1.4,1,2,1.8s0.8,1.8,0.8,3.2C210,16.7,209.8,17.6,209.4,18.4z"/>
</g>
<g>
	<path class="st9" d="M118.3,38.1h-1.6l-0.9-5.1l-0.9,5.1h-1.6l-1.5-8.3h1.5l0.8,6.2l0.8-6.2h1.8l0.8,6.2l0.8-6.2h1.5L118.3,38.1z"
		/>
	<path class="st9" d="M120.3,35.8v-3.7c0-0.8,0.2-1.4,0.7-1.8c0.4-0.4,1-0.6,1.7-0.6s1.3,0.2,1.7,0.6c0.4,0.4,0.6,1,0.6,1.8v3.7
		c0,0.8-0.2,1.4-0.7,1.8c-0.4,0.4-1,0.6-1.7,0.6s-1.3-0.2-1.7-0.6C120.6,37.2,120.3,36.6,120.3,35.8z M123.6,35.7v-3.3
		c0-0.4-0.1-0.7-0.2-1c-0.1-0.2-0.4-0.3-0.6-0.3c-0.3,0-0.5,0.1-0.7,0.3s-0.2,0.5-0.2,1v3.3c0,0.8,0.3,1.2,0.9,1.2
		c0.3,0,0.5-0.1,0.6-0.3C123.5,36.3,123.6,36,123.6,35.7z"/>
	<path class="st9" d="M127.5,34.8v3.3H126v-8.3h2.3c0.8,0,1.4,0.2,1.7,0.6s0.5,1,0.5,1.9c0,0.6-0.1,1-0.2,1.4
		c-0.2,0.4-0.4,0.6-0.7,0.8l1.2,3.6h-1.5l-1-3.3H127.5z M128.2,33.5c0.3,0,0.5-0.1,0.6-0.3s0.2-0.5,0.2-0.9s-0.1-0.7-0.2-0.9
		c-0.1-0.2-0.3-0.3-0.6-0.3h-0.8v2.3L128.2,33.5L128.2,33.5z"/>
	<path class="st9" d="M133,29.8v7h2.2v1.3h-3.7v-8.3H133z"/>
	<path class="st9" d="M138.2,29.8c0.7,0,1.3,0.2,1.7,0.6s0.6,1,0.6,1.8v3.5c0,0.8-0.2,1.4-0.7,1.8c-0.4,0.4-1,0.6-1.7,0.6h-2.2v-8.3
		H138.2z M138.8,36.5c0.1-0.2,0.2-0.5,0.2-0.9v-3.1c0-0.4-0.1-0.7-0.2-1s-0.4-0.3-0.6-0.3h-0.8v5.6h0.8
		C138.5,36.8,138.7,36.7,138.8,36.5z"/>
	<path class="st9" d="M144.8,29.8l1,6.2l1-6.2h1.6l-1.9,8.3H145l-1.9-8.3H144.8z"/>
	<path class="st9" d="M150.4,33.2h1.9v1.3h-1.9v2.2h2.2V38H149v-8.3h3.7V31h-2.2v2.2H150.4z"/>
	<path class="st9" d="M155.9,31.2v6.9h-1.5v-6.9H153v-1.3h4.3v1.3C157.3,31.2,155.9,31.2,155.9,31.2z"/>
	<path class="st9" d="M159.4,33.2h1.9v1.3h-1.9v2.2h2.2V38h-3.7v-8.3h3.7V31h-2.2V33.2z"/>
	<path class="st9" d="M163.9,34.8v3.3h-1.5v-8.3h2.3c0.8,0,1.4,0.2,1.7,0.6s0.5,1,0.5,1.9c0,0.6-0.1,1-0.2,1.4
		c-0.2,0.4-0.4,0.6-0.7,0.8l1.2,3.6h-1.5l-1-3.3H163.9z M164.6,33.5c0.3,0,0.5-0.1,0.6-0.3s0.2-0.5,0.2-0.9s-0.1-0.7-0.2-0.9
		c-0.1-0.2-0.3-0.3-0.6-0.3h-0.8v2.3L164.6,33.5L164.6,33.5z"/>
	<path class="st9" d="M169.4,29.8v8.3H168v-8.3H169.4z"/>
	<path class="st9" d="M175.2,38.1h-1.5l-1.7-4.4v4.4h-1.5v-8.3h1.5l1.7,4.6v-4.6h1.5V38.1z"/>
	<path class="st9" d="M177.6,36.5l-0.3,1.6h-1.5l2.1-8.3h1.4l2.1,8.3h-1.5l-0.3-1.6H177.6z M178.6,31.8l-0.7,3.4h1.4L178.6,31.8z"/>
	<path class="st9" d="M183.5,34.8v3.3H182v-8.3h2.3c0.8,0,1.4,0.2,1.7,0.6s0.5,1,0.5,1.9c0,0.6-0.1,1-0.2,1.4
		c-0.2,0.4-0.4,0.6-0.7,0.8l1.2,3.6h-1.5l-1-3.3H183.5z M184.2,33.5c0.3,0,0.5-0.1,0.6-0.3s0.2-0.5,0.2-0.9s-0.1-0.7-0.2-0.9
		c-0.1-0.2-0.3-0.3-0.6-0.3h-0.8v2.3L184.2,33.5L184.2,33.5z"/>
	<path class="st9" d="M190.2,38.1h-1.5v-3.2l-1.7-5h1.6l0.8,3.2l0.8-3.2h1.6l-1.7,5L190.2,38.1L190.2,38.1z"/>
	<path class="st9" d="M113.7,48.5l-0.3,1.6h-1.5l2.1-8.3h1.4l2.1,8.3H116l-0.3-1.6H113.7z M114.7,43.8l-0.7,3.4h1.4L114.7,43.8z"/>
	<path class="st9" d="M117.8,47.7h1.4c0,0.4,0.1,0.7,0.2,0.9s0.4,0.3,0.7,0.3s0.5-0.1,0.6-0.3s0.2-0.5,0.2-0.8s-0.1-0.6-0.2-0.8
		s-0.4-0.4-0.7-0.5l-0.6-0.3c-0.5-0.2-0.9-0.5-1.2-0.9c-0.2-0.4-0.4-0.8-0.4-1.4c0-0.7,0.2-1.3,0.6-1.7s1-0.6,1.6-0.6
		c0.7,0,1.2,0.2,1.6,0.6c0.4,0.4,0.6,1,0.6,1.8H121c0-0.4-0.1-0.7-0.2-0.8c-0.1-0.2-0.3-0.3-0.6-0.3c-0.5,0-0.8,0.3-0.8,0.9
		c0,0.3,0.1,0.5,0.2,0.7s0.4,0.3,0.7,0.5l0.5,0.2c0.6,0.3,1,0.6,1.3,1s0.4,0.9,0.4,1.5c0,0.8-0.2,1.4-0.6,1.8
		c-0.4,0.4-1,0.6-1.7,0.6s-1.3-0.2-1.7-0.6S117.9,48.5,117.8,47.7z"/>
	<path class="st9" d="M123,47.7h1.4c0,0.4,0.1,0.7,0.2,0.9s0.4,0.3,0.7,0.3s0.5-0.1,0.6-0.3s0.2-0.5,0.2-0.8s-0.1-0.6-0.2-0.8
		s-0.4-0.4-0.7-0.5l-0.6-0.3c-0.5-0.2-0.9-0.5-1.2-0.9c-0.2-0.4-0.4-0.8-0.4-1.4c0-0.7,0.2-1.3,0.6-1.7s1-0.6,1.6-0.6
		c0.7,0,1.2,0.2,1.6,0.6c0.4,0.4,0.6,1,0.6,1.8H126c0-0.4-0.1-0.7-0.2-0.8c-0.1-0.2-0.3-0.3-0.6-0.3c-0.5,0-0.8,0.3-0.8,0.9
		c0,0.3,0.1,0.5,0.2,0.7s0.4,0.3,0.7,0.5l0.5,0.2c0.6,0.3,1,0.6,1.3,1s0.4,0.9,0.4,1.5c0,0.8-0.2,1.4-0.6,1.8
		c-0.4,0.4-1,0.6-1.7,0.6s-1.3-0.2-1.7-0.6S123,48.5,123,47.7z"/>
	<path class="st9" d="M128.3,47.8v-3.7c0-0.8,0.2-1.4,0.7-1.8c0.4-0.4,1-0.6,1.7-0.6s1.3,0.2,1.7,0.6c0.4,0.4,0.6,1,0.6,1.8v3.7
		c0,0.8-0.2,1.4-0.7,1.8c-0.4,0.4-1,0.6-1.7,0.6s-1.3-0.2-1.7-0.6C128.5,49.2,128.3,48.6,128.3,47.8z M131.5,47.7v-3.3
		c0-0.4-0.1-0.7-0.2-1c-0.1-0.2-0.4-0.3-0.6-0.3c-0.3,0-0.5,0.1-0.7,0.3s-0.2,0.5-0.2,1v3.3c0,0.8,0.3,1.2,0.9,1.2
		c0.3,0,0.5-0.1,0.6-0.3C131.5,48.3,131.5,48,131.5,47.7z"/>
	<path class="st9" d="M133.9,47.8v-3.7c0-0.8,0.2-1.4,0.7-1.8c0.4-0.4,1-0.6,1.7-0.6s1.2,0.2,1.7,0.6c0.4,0.4,0.6,1,0.6,1.8v0.3
		h-1.5v-0.2c0-0.4-0.1-0.7-0.2-0.8s-0.4-0.3-0.6-0.3c-0.3,0-0.5,0.1-0.7,0.3s-0.2,0.5-0.2,1v3.3c0,0.8,0.3,1.2,0.9,1.2
		c0.3,0,0.5-0.1,0.6-0.3c0.2-0.2,0.2-0.5,0.2-0.8v-0.2h1.5v0.2c0,0.8-0.2,1.4-0.7,1.8c-0.4,0.4-1,0.6-1.7,0.6s-1.3-0.2-1.7-0.6
		S133.9,48.6,133.9,47.8z"/>
	<path class="st9" d="M141.1,41.8v8.3h-1.5v-8.3H141.1z"/>
	<path class="st9" d="M143.6,48.5l-0.3,1.6h-1.5l2.1-8.3h1.4l2.1,8.3h-1.5l-0.3-1.6H143.6z M144.6,43.8l-0.7,3.4h1.4L144.6,43.8z"/>
	<path class="st9" d="M149.9,43.2v6.9h-1.5v-6.9H147v-1.3h4.3v1.3H149.9z"/>
	<path class="st9" d="M153.4,41.8v8.3h-1.5v-8.3H153.4z"/>
	<path class="st9" d="M154.4,47.8v-3.7c0-0.8,0.2-1.4,0.7-1.8c0.4-0.4,1-0.6,1.7-0.6s1.3,0.2,1.7,0.6c0.4,0.4,0.6,1,0.6,1.8v3.7
		c0,0.8-0.2,1.4-0.7,1.8c-0.4,0.4-1,0.6-1.7,0.6s-1.3-0.2-1.7-0.6S154.4,48.6,154.4,47.8z M157.6,47.7v-3.3c0-0.4-0.1-0.7-0.2-1
		c-0.1-0.2-0.4-0.3-0.6-0.3c-0.3,0-0.5,0.1-0.7,0.3s-0.2,0.5-0.2,1v3.3c0,0.8,0.3,1.2,0.9,1.2c0.3,0,0.5-0.1,0.6-0.3
		C157.6,48.3,157.6,48,157.6,47.7z"/>
	<path class="st9" d="M164.7,50.1h-1.5l-1.7-4.4v4.4H160v-8.3h1.5l1.7,4.6v-4.6h1.5V50.1z"/>
	<path class="st9" d="M167.8,47.8v-3.7c0-0.8,0.2-1.4,0.7-1.8c0.4-0.4,1-0.6,1.7-0.6s1.2,0.2,1.7,0.6c0.4,0.4,0.6,1,0.6,1.8v0.3H171
		v-0.2c0-0.4-0.1-0.7-0.2-0.8s-0.4-0.3-0.6-0.3c-0.3,0-0.5,0.1-0.7,0.3s-0.2,0.5-0.2,1v3.3c0,0.8,0.3,1.2,0.9,1.2
		c0.3,0,0.5-0.1,0.6-0.3c0.2-0.2,0.2-0.5,0.2-0.8v-0.2h1.5v0.2c0,0.8-0.2,1.4-0.7,1.8c-0.4,0.4-1,0.6-1.7,0.6s-1.3-0.2-1.7-0.6
		C168,49.2,167.8,48.6,167.8,47.8z"/>
	<path class="st9" d="M173.4,47.8v-3.7c0-0.8,0.2-1.4,0.7-1.8c0.4-0.4,1-0.6,1.7-0.6s1.3,0.2,1.7,0.6c0.4,0.4,0.6,1,0.6,1.8v3.7
		c0,0.8-0.2,1.4-0.7,1.8c-0.4,0.4-1,0.6-1.7,0.6s-1.3-0.2-1.7-0.6S173.4,48.6,173.4,47.8z M176.6,47.7v-3.3c0-0.4-0.1-0.7-0.2-1
		c-0.1-0.2-0.4-0.3-0.6-0.3c-0.3,0-0.5,0.1-0.7,0.3s-0.2,0.5-0.2,1v3.3c0,0.8,0.3,1.2,0.9,1.2c0.3,0,0.5-0.1,0.6-0.3
		C176.6,48.3,176.6,48,176.6,47.7z"/>
	<path class="st9" d="M183.8,50.1h-1.5l-1.7-4.4v4.4h-1.5v-8.3h1.5l1.7,4.6v-4.6h1.5V50.1z"/>
	<path class="st9" d="M184.7,47.8v-3.7c0-0.8,0.2-1.4,0.7-1.8c0.4-0.4,1-0.6,1.7-0.6s1.2,0.2,1.7,0.6s0.6,1,0.6,1.7v0.3h-1.5V44
		c0-0.3-0.1-0.6-0.2-0.7c-0.2-0.2-0.4-0.3-0.6-0.3c-0.3,0-0.5,0.1-0.7,0.3s-0.2,0.5-0.2,1v3.3c0,0.8,0.3,1.2,0.9,1.2
		c0.3,0,0.5-0.1,0.6-0.3s0.2-0.5,0.2-0.8v-0.9H187v-1.2h2.4v2.1c0,0.8-0.2,1.4-0.7,1.8c-0.4,0.4-1,0.6-1.7,0.6s-1.3-0.2-1.7-0.6
		C184.9,49.2,184.7,48.6,184.7,47.8z"/>
	<path class="st9" d="M191.9,46.8v3.3h-1.5v-8.3h2.3c0.8,0,1.4,0.2,1.7,0.6s0.5,1,0.5,1.9c0,0.6-0.1,1-0.2,1.4
		c-0.2,0.4-0.4,0.6-0.7,0.8l1.2,3.6h-1.5l-1-3.3H191.9z M192.6,45.5c0.3,0,0.5-0.1,0.6-0.3s0.2-0.5,0.2-0.9s-0.1-0.7-0.2-0.9
		c-0.1-0.2-0.3-0.3-0.6-0.3h-0.8v2.3h0.8V45.5z"/>
	<path class="st9" d="M197.4,45.2h1.9v1.3h-1.9v2.2h2.2V50h-3.7v-8.3h3.7V43h-2.2V45.2z"/>
	<path class="st9" d="M200.1,47.7h1.4c0,0.4,0.1,0.7,0.2,0.9c0.1,0.2,0.4,0.3,0.7,0.3s0.5-0.1,0.6-0.3s0.2-0.5,0.2-0.8
		s-0.1-0.6-0.2-0.8c-0.1-0.2-0.4-0.4-0.7-0.5l-0.6-0.3c-0.5-0.2-0.9-0.5-1.2-0.9c-0.2-0.4-0.4-0.8-0.4-1.4c0-0.7,0.2-1.3,0.6-1.7
		c0.4-0.4,1-0.6,1.6-0.6c0.7,0,1.2,0.2,1.6,0.6c0.4,0.4,0.6,1,0.6,1.8h-1.4c0-0.4-0.1-0.7-0.2-0.8c-0.1-0.2-0.3-0.3-0.6-0.3
		c-0.5,0-0.8,0.3-0.8,0.9c0,0.3,0.1,0.5,0.2,0.7c0.1,0.2,0.4,0.3,0.7,0.5l0.5,0.2c0.6,0.3,1,0.6,1.3,1s0.4,0.9,0.4,1.5
		c0,0.8-0.2,1.4-0.6,1.8c-0.4,0.4-1,0.6-1.7,0.6s-1.3-0.2-1.7-0.6S200.1,48.5,200.1,47.7z"/>
	<path class="st9" d="M205.2,47.7h1.4c0,0.4,0.1,0.7,0.2,0.9c0.1,0.2,0.4,0.3,0.7,0.3s0.5-0.1,0.6-0.3s0.2-0.5,0.2-0.8
		s-0.1-0.6-0.2-0.8c-0.1-0.2-0.4-0.4-0.7-0.5l-0.6-0.3c-0.5-0.2-0.9-0.5-1.2-0.9c-0.2-0.4-0.4-0.8-0.4-1.4c0-0.7,0.2-1.3,0.6-1.7
		c0.4-0.4,0.9-0.6,1.6-0.6c0.7,0,1.2,0.2,1.6,0.6c0.4,0.4,0.6,1,0.6,1.8h-1.4c0-0.4-0.1-0.7-0.2-0.8c-0.1-0.2-0.3-0.3-0.6-0.3
		c-0.5,0-0.8,0.3-0.8,0.9c0,0.3,0.1,0.5,0.2,0.7c0.1,0.2,0.4,0.3,0.7,0.5l0.5,0.2c0.6,0.3,1,0.6,1.3,1s0.4,0.9,0.4,1.5
		c0,0.8-0.2,1.4-0.6,1.8c-0.4,0.4-1,0.6-1.7,0.6s-1.3-0.2-1.7-0.6S205.2,48.5,205.2,47.7z"/>
</g>
<g>
	<path class="st9" d="M76.2,46.5c-0.4,0.8-0.8,1.4-1.4,1.9s-1.3,0.9-2.1,1.2C71.9,49.8,71,50,70.1,50s-1.7-0.1-2.5-0.4
		c-0.8-0.2-1.5-0.6-2.1-1.1s-1.1-1.1-1.5-1.9c-0.4-0.8-0.6-1.7-0.6-2.8h3.8c0,0.5,0.1,0.9,0.3,1.2c0.2,0.3,0.4,0.6,0.6,0.8
		c0.3,0.2,0.6,0.4,0.9,0.5s0.7,0.2,1.1,0.2c0.8,0,1.5-0.2,2-0.7s0.8-1.2,0.8-2.1c0-0.9-0.3-1.6-0.8-2.1s-1.2-0.8-2.2-0.8h-0.6v-3.3
		H70c0.9,0,1.6-0.2,2-0.7s0.6-1.1,0.6-1.9c0-0.9-0.3-1.5-0.8-2c-0.5-0.4-1.1-0.7-1.8-0.7c-0.7,0-1.3,0.2-1.8,0.7
		c-0.5,0.4-0.7,1.1-0.8,1.9h-3.8c0-0.9,0.2-1.8,0.5-2.5s0.8-1.3,1.4-1.9c0.6-0.5,1.2-0.9,2-1.2c0.8-0.3,1.6-0.4,2.5-0.4
		s1.8,0.1,2.5,0.4c0.8,0.3,1.5,0.7,2,1.2c0.6,0.5,1,1.2,1.3,1.9c0.3,0.7,0.5,1.5,0.5,2.4c0,1.1-0.2,2-0.7,2.7s-1,1.2-1.7,1.6
		c0.7,0.4,1.4,1,1.9,1.7c0.5,0.8,0.8,1.8,0.8,3C76.7,44.8,76.6,45.7,76.2,46.5z"/>
	<path class="st9" d="M92.2,46.4c-0.4,0.8-0.8,1.4-1.4,1.9s-1.3,0.9-2.1,1.2C87.9,49.8,87,50,86.1,50s-1.8-0.1-2.6-0.4
		c-0.8-0.3-1.5-0.7-2.1-1.2s-1.1-1.2-1.4-1.9c-0.4-0.8-0.5-1.7-0.5-2.7c0-0.6,0.1-1.2,0.2-1.7c0.2-0.5,0.4-0.9,0.6-1.3
		c0.3-0.4,0.5-0.7,0.8-1s0.6-0.5,0.9-0.7c-0.3-0.2-0.5-0.4-0.8-0.7s-0.5-0.6-0.8-0.9c-0.2-0.4-0.4-0.8-0.6-1.2s-0.2-1-0.2-1.5
		c0-0.9,0.2-1.7,0.5-2.5c0.3-0.7,0.8-1.4,1.4-1.9s1.3-0.9,2-1.2c0.8-0.3,1.6-0.4,2.5-0.4s1.7,0.1,2.5,0.4s1.4,0.7,2,1.2
		s1,1.1,1.4,1.9s0.5,1.6,0.5,2.5c0,0.6-0.1,1.1-0.2,1.5s-0.3,0.8-0.6,1.2c-0.2,0.4-0.5,0.7-0.8,0.9c-0.3,0.3-0.6,0.5-0.8,0.7
		c0.3,0.2,0.6,0.4,0.9,0.7s0.6,0.6,0.9,1s0.5,0.8,0.6,1.3c0.2,0.5,0.2,1.1,0.2,1.7C92.7,44.8,92.6,45.7,92.2,46.4z M88.1,41.6
		c-0.5-0.6-1.2-0.8-2-0.8s-1.5,0.3-2,0.8c-0.5,0.6-0.8,1.2-0.8,2.1s0.3,1.5,0.8,2s1.2,0.8,2,0.8s1.5-0.3,2-0.8s0.8-1.2,0.8-2
		S88.6,42.2,88.1,41.6z M87.9,33c-0.5-0.5-1.1-0.8-1.8-0.8c-0.7,0-1.4,0.3-1.9,0.8s-0.7,1.1-0.7,1.9c0,0.8,0.2,1.4,0.7,1.9
		s1.1,0.7,1.9,0.7c0.7,0,1.4-0.2,1.8-0.7c0.5-0.5,0.7-1.1,0.7-1.9C88.7,34.1,88.4,33.5,87.9,33z"/>
	<path class="st9" d="M97.7,40.3c-0.4,0-0.8-0.1-1.1-0.2s-0.6-0.3-0.7-0.5s-0.3-0.5-0.4-0.8s-0.1-0.6-0.1-0.9v-4.1h-0.9v-1.6h0.9
		v-2.4h2.1v2.4H99v1.6h-1.5v4c0,0.5,0.2,0.7,0.7,0.7h0.7v1.7L97.7,40.3L97.7,40.3z"/>
	<path class="st9" d="M105.4,40.3v-5c0-0.3,0-0.5-0.1-0.7s-0.2-0.3-0.3-0.5s-0.3-0.2-0.4-0.2s-0.3-0.1-0.5-0.1s-0.3,0-0.5,0.1
		s-0.3,0.1-0.4,0.2s-0.2,0.3-0.3,0.5c-0.1,0.2-0.1,0.4-0.1,0.7v5h-2.1V29.1h2.1v3.8c0.3-0.3,0.6-0.5,0.9-0.6s0.7-0.2,1.1-0.2
		c0.5,0,0.8,0.1,1.2,0.2c0.3,0.1,0.6,0.4,0.9,0.6c0.2,0.3,0.4,0.6,0.5,1s0.2,0.8,0.2,1.2v5.3h-2.2V40.3z"/>
</g>
<g>
	<text transform="matrix(1 0 0 1 10.4825 -96.3444)" style="font-family:'D-DINCondensed'; font-size:10.7173px;">Taipei,Taiwan | April 26-29, 2023</text>
</g>
</svg>
